<svg width="183" height="56" viewBox="0 0 183 56" fill="none" xmlns="http://www.w3.org/2000/svg">
<path d="M176.222 1.30489C179.36 1.30489 181.914 3.92421 181.914 7.14316V48.8574C181.914 52.0764 179.36 54.6957 176.222 54.6957H6.77778C3.63967 54.6957 1.08614 52.0764 1.08614 48.8574V7.14316C1.08614 3.92421 3.63967 1.30489 6.77778 1.30489H176.222ZM176.222 0.190779H6.77778C3.05169 0.190779 0 3.32109 0 7.14316V48.8574C0 52.6795 3.05169 55.8098 6.77778 55.8098H176.222C179.948 55.8098 183 52.6795 183 48.8574V7.14316C183 3.32109 179.948 0.190779 176.222 0.190779Z" fill="white"/>
<path d="M40.8403 27.6995C40.8009 23.218 44.4176 21.0378 44.5829 20.9363C42.5347 17.873 39.36 17.4545 38.2444 17.4211C35.578 17.1333 32.9916 19.0577 31.6333 19.0577C30.2479 19.0577 28.1563 17.449 25.902 17.4962C23.0011 17.5421 20.2873 19.2649 18.7989 21.9402C15.7272 27.395 18.0181 35.4111 20.961 39.8203C22.4332 41.9797 24.1534 44.3908 26.4049 44.306C28.6077 44.2128 29.4305 42.8654 32.0888 42.8654C34.7226 42.8654 35.4953 44.306 37.7916 44.2517C40.1557 44.2128 41.6441 42.0826 43.0647 39.9037C44.7659 37.4287 45.4491 34.9912 45.4763 34.866C45.4207 34.8466 40.885 33.0709 40.8403 27.6995Z" fill="white"/>
<path d="M36.5025 14.5206C37.6872 13.0008 38.4979 10.9332 38.2728 8.83496C36.5581 8.91283 34.4136 10.0516 33.1787 11.538C32.0861 12.8479 31.1101 14.9948 31.3622 17.0137C33.2885 17.1611 35.2662 16.0168 36.5025 14.5206Z" fill="white"/>
<path d="M72.7187 43.9961H69.6402L67.9539 38.5607H62.0925L60.4861 43.9961H57.489L63.2962 25.4917H66.883L72.7187 43.9961ZM67.4456 36.2803L65.9206 31.4485C65.7593 30.9548 65.457 29.7924 65.011 27.9626H64.9568C64.7792 28.7496 64.4932 29.912 64.1001 31.4485L62.6022 36.2803H67.4456Z" fill="white"/>
<path d="M87.6529 37.1607C87.6529 39.43 87.0551 41.2237 85.8595 42.5404C84.7886 43.7126 83.4588 44.298 81.8715 44.298C80.158 44.298 78.9272 43.6667 78.1776 42.4042H78.1234V49.433H75.2333V35.0458C75.2333 33.6192 75.1967 32.155 75.1262 30.6533H77.6679L77.8292 32.7682H77.8834C78.8472 31.1747 80.3099 30.3794 82.2727 30.3794C83.8072 30.3794 85.0882 31.0009 86.113 32.2454C87.1405 33.4913 87.6529 35.1292 87.6529 37.1607ZM84.7087 37.2692C84.7087 35.9705 84.424 34.8998 83.8519 34.0572C83.227 33.1784 82.3879 32.739 81.336 32.739C80.623 32.739 79.975 32.9837 79.3962 33.4662C78.816 33.9529 78.4365 34.5883 78.2589 35.3753C78.1694 35.7424 78.1247 36.0428 78.1247 36.2792V38.5039C78.1247 39.4744 78.4148 40.2934 78.995 40.9622C79.5752 41.6311 80.3288 41.9648 81.256 41.9648C82.3446 41.9648 83.1918 41.5337 83.7977 40.6744C84.405 39.8137 84.7087 38.6791 84.7087 37.2692Z" fill="white"/>
<path d="M102.614 37.1607C102.614 39.43 102.016 41.2237 100.819 42.5404C99.7499 43.7126 98.4201 44.298 96.8328 44.298C95.1193 44.298 93.8885 43.6667 93.1402 42.4042H93.086V49.433H90.196V35.0458C90.196 33.6192 90.1594 32.155 90.0889 30.6533H92.6305L92.7918 32.7682H92.8461C93.8085 31.1747 95.2712 30.3794 97.2354 30.3794C98.7685 30.3794 100.049 31.0009 101.077 32.2454C102.1 33.4913 102.614 35.1292 102.614 37.1607ZM99.6699 37.2692C99.6699 35.9705 99.3839 34.8998 98.8119 34.0572C98.187 33.1784 97.3506 32.739 96.2973 32.739C95.5829 32.739 94.9363 32.9837 94.3562 33.4662C93.776 33.9529 93.3978 34.5883 93.2202 35.3753C93.1321 35.7424 93.086 36.0428 93.086 36.2792V38.5039C93.086 39.4744 93.3761 40.2934 93.9536 40.9622C94.5337 41.6297 95.2874 41.9648 96.2173 41.9648C97.3058 41.9648 98.1531 41.5337 98.759 40.6744C99.3663 39.8137 99.6699 38.6791 99.6699 37.2692Z" fill="white"/>
<path d="M119.342 38.8071C119.342 40.3811 118.809 41.6617 117.739 42.6503C116.564 43.7307 114.928 44.2702 112.826 44.2702C110.884 44.2702 109.328 43.8865 108.15 43.1175L108.82 40.6467C110.089 41.4337 111.481 41.8286 112.998 41.8286C114.086 41.8286 114.933 41.5755 115.542 41.0721C116.148 40.5688 116.45 39.893 116.45 39.0504C116.45 38.2995 116.201 37.6669 115.701 37.1538C115.203 36.6407 114.372 36.1638 113.212 35.723C110.053 34.5147 108.476 32.7446 108.476 30.4169C108.476 28.8957 109.029 27.6485 110.136 26.6779C111.24 25.706 112.712 25.2207 114.553 25.2207C116.194 25.2207 117.558 25.5141 118.646 26.0995L117.924 28.5161C116.907 27.9488 115.758 27.6652 114.471 27.6652C113.455 27.6652 112.66 27.9224 112.091 28.4341C111.61 28.8916 111.368 29.4491 111.368 30.1096C111.368 30.841 111.644 31.4459 112.197 31.9214C112.678 32.3608 113.552 32.8363 114.821 33.3494C116.373 33.9904 117.513 34.7399 118.246 35.5992C118.977 36.4558 119.342 37.5278 119.342 38.8071Z" fill="white"/>
<path d="M128.897 32.8778H125.711V39.356C125.711 41.0037 126.273 41.8269 127.398 41.8269C127.914 41.8269 128.342 41.781 128.681 41.6892L128.761 43.9404C128.192 44.1587 127.442 44.2686 126.514 44.2686C125.372 44.2686 124.481 43.9112 123.837 43.1979C123.195 42.4832 122.873 41.2846 122.873 39.6007V32.875H120.975V30.6502H122.873V28.2072L125.711 27.3284V30.6502H128.897V32.8778Z" fill="white"/>
<path d="M143.27 37.2148C143.27 39.2658 142.698 40.9496 141.556 42.2664C140.36 43.6221 138.771 44.2979 136.79 44.2979C134.882 44.2979 133.362 43.6486 132.229 42.3498C131.096 41.0511 130.529 39.4118 130.529 37.4359C130.529 35.3683 131.112 33.6747 132.282 32.3579C133.449 31.0397 135.024 30.3806 137.005 30.3806C138.913 30.3806 140.449 31.03 141.608 32.3301C142.717 33.5912 143.27 35.2195 143.27 37.2148ZM140.271 37.3108C140.271 36.0802 140.015 35.0248 139.496 34.1446C138.89 33.0795 138.024 32.5484 136.902 32.5484C135.74 32.5484 134.857 33.0809 134.251 34.1446C133.732 35.0262 133.476 36.0983 133.476 37.3664C133.476 38.5969 133.732 39.6523 134.251 40.5311C134.876 41.5962 135.749 42.1274 136.876 42.1274C137.979 42.1274 138.845 41.5851 139.47 40.5033C140.003 39.6064 140.271 38.5399 140.271 37.3108Z" fill="white"/>
<path d="M152.664 33.2604C152.378 33.2062 152.073 33.1784 151.753 33.1784C150.736 33.1784 149.95 33.5719 149.397 34.3603C148.916 35.0555 148.675 35.9343 148.675 36.9952V43.9962H145.786L145.813 34.8553C145.813 33.3174 145.776 31.9172 145.705 30.6547H148.222L148.328 33.2076H148.408C148.713 32.3302 149.194 31.6239 149.853 31.0941C150.496 30.6172 151.192 30.3794 151.941 30.3794C152.209 30.3794 152.45 30.3989 152.664 30.4336V33.2604Z" fill="white"/>
<path d="M165.589 36.6934C165.589 37.2246 165.555 37.6723 165.483 38.038H156.813C156.847 39.3562 157.266 40.3643 158.071 41.0595C158.802 41.6811 159.747 41.9925 160.907 41.9925C162.191 41.9925 163.362 41.7826 164.415 41.3613L164.868 43.4192C163.637 43.9698 162.184 44.2437 160.507 44.2437C158.49 44.2437 156.907 43.6347 155.755 42.418C154.605 41.2013 154.029 39.5675 154.029 37.518C154.029 35.506 154.565 33.8304 155.637 32.4942C156.759 31.0676 158.276 30.3542 160.185 30.3542C162.059 30.3542 163.479 31.0676 164.442 32.4942C165.206 33.6274 165.589 35.029 165.589 36.6934ZM162.833 35.9245C162.852 35.0457 162.664 34.2865 162.272 33.6455C161.772 32.821 161.003 32.4094 159.969 32.4094C159.024 32.4094 158.256 32.8112 157.669 33.6177C157.187 34.2587 156.901 35.0276 156.813 35.9231H162.833V35.9245Z" fill="white"/>
<path d="M66.49 14.1076C66.49 15.7442 66.0115 16.9761 65.0558 17.8035C64.1706 18.5668 62.9126 18.9492 61.2833 18.9492C60.4754 18.9492 59.784 18.9131 59.2052 18.8407V9.89858C59.9602 9.77343 60.7736 9.70947 61.652 9.70947C63.2041 9.70947 64.3739 10.0557 65.1629 10.7482C66.0467 11.531 66.49 12.6503 66.49 14.1076ZM64.9921 14.1479C64.9921 13.0869 64.7182 12.2735 64.1706 11.7062C63.623 11.1403 62.8232 10.8566 61.7699 10.8566C61.3226 10.8566 60.9417 10.8872 60.6258 10.9512V17.7492C60.8007 17.777 61.1206 17.7895 61.5856 17.7895C62.6727 17.7895 63.5118 17.4795 64.1028 16.8593C64.6939 16.2392 64.9921 15.3354 64.9921 14.1479Z" fill="white"/>
<path d="M74.4321 15.5368C74.4321 16.5449 74.1515 17.3708 73.5903 18.0188C73.002 18.6848 72.2225 19.0171 71.2492 19.0171C70.3112 19.0171 69.5643 18.6987 69.0071 18.0591C68.4514 17.4209 68.1735 16.6158 68.1735 15.6452C68.1735 14.6302 68.4595 13.7973 69.0342 13.1507C69.609 12.5042 70.3817 12.1802 71.355 12.1802C72.293 12.1802 73.0467 12.4986 73.6174 13.1368C74.1596 13.757 74.4321 14.5579 74.4321 15.5368ZM72.9586 15.5841C72.9586 14.9792 72.8312 14.4606 72.5777 14.0281C72.2794 13.5053 71.8552 13.2439 71.3034 13.2439C70.7328 13.2439 70.299 13.5053 70.0008 14.0281C69.7459 14.4606 69.6198 14.9875 69.6198 15.6105C69.6198 16.2153 69.7473 16.734 70.0008 17.1664C70.3085 17.6892 70.7368 17.9506 71.2899 17.9506C71.8321 17.9506 72.2578 17.6851 72.5641 17.1525C72.8271 16.7117 72.9586 16.1889 72.9586 15.5841Z" fill="white"/>
<path d="M85.0814 12.3142L83.082 18.8689H81.7807L80.9524 16.0226C80.7423 15.3121 80.5715 14.6057 80.4387 13.9049H80.4129C80.2895 14.6252 80.1187 15.3301 79.8991 16.0226L79.0194 18.8689H77.7031L75.823 12.3142H77.2829L78.0054 15.4303C78.1803 16.1672 78.324 16.8694 78.4392 17.534H78.465C78.5707 16.9862 78.7456 16.2882 78.9923 15.4442L79.8991 12.3156H81.0568L81.9257 15.3774C82.1358 16.1241 82.3066 16.843 82.4381 17.5354H82.4774C82.5737 16.8611 82.7187 16.1422 82.9112 15.3774L83.6866 12.3156H85.0814V12.3142Z" fill="white"/>
<path d="M92.4461 18.8687H91.0255V15.1144C91.0255 13.9575 90.5971 13.379 89.7377 13.379C89.3161 13.379 88.9759 13.5376 88.7116 13.856C88.4499 14.1744 88.3171 14.5498 88.3171 14.9795V18.8673H86.8965V14.1869C86.8965 13.6113 86.8789 12.9869 86.845 12.3111H88.0934L88.1599 13.3359H88.1992C88.3645 13.0175 88.6113 12.7547 88.9352 12.5447C89.3202 12.3 89.7513 12.1763 90.223 12.1763C90.8194 12.1763 91.3156 12.3737 91.71 12.77C92.2008 13.2553 92.4461 13.9797 92.4461 14.9419V18.8687Z" fill="white"/>
<path d="M96.3637 18.8686H94.9445V9.3064H96.3637V18.8686Z" fill="white"/>
<path d="M104.727 15.5368C104.727 16.5449 104.447 17.3708 103.886 18.0188C103.297 18.6848 102.517 19.0171 101.545 19.0171C100.605 19.0171 99.8583 18.6987 99.3025 18.0591C98.7468 17.4209 98.4689 16.6158 98.4689 15.6452C98.4689 14.6302 98.7549 13.7973 99.3297 13.1507C99.9044 12.5042 100.677 12.1802 101.649 12.1802C102.588 12.1802 103.341 12.4986 103.913 13.1368C104.455 13.757 104.727 14.5579 104.727 15.5368ZM103.253 15.5841C103.253 14.9792 103.125 14.4606 102.872 14.0281C102.575 13.5053 102.149 13.2439 101.599 13.2439C101.027 13.2439 100.593 13.5053 100.296 14.0281C100.041 14.4606 99.9153 14.9875 99.9153 15.6105C99.9153 16.2153 100.043 16.734 100.296 17.1664C100.604 17.6892 101.032 17.9506 101.585 17.9506C102.128 17.9506 102.552 17.6851 102.858 17.1525C103.122 16.7117 103.253 16.1889 103.253 15.5841Z" fill="white"/>
<path d="M111.603 18.8684H110.327L110.221 18.1133H110.182C109.746 18.7154 109.123 19.0171 108.316 19.0171C107.712 19.0171 107.224 18.8183 106.857 18.4234C106.524 18.0647 106.357 17.6183 106.357 17.0885C106.357 16.2876 106.682 15.6772 107.337 15.2545C107.99 14.8318 108.909 14.6246 110.093 14.6344V14.512C110.093 13.6485 109.651 13.2175 108.766 13.2175C108.135 13.2175 107.58 13.3802 107.1 13.7027L106.811 12.7461C107.405 12.3693 108.138 12.1802 109.003 12.1802C110.673 12.1802 111.511 13.084 111.511 14.8916V17.3055C111.511 17.9604 111.542 18.4818 111.603 18.8684ZM110.128 16.6158V15.6049C108.561 15.5771 107.777 16.0179 107.777 16.9259C107.777 17.2679 107.867 17.5238 108.05 17.6948C108.233 17.8658 108.466 17.9506 108.744 17.9506C109.056 17.9506 109.347 17.8491 109.613 17.6475C109.88 17.4445 110.044 17.1873 110.105 16.8716C110.12 16.8007 110.128 16.7145 110.128 16.6158Z" fill="white"/>
<path d="M119.675 18.8686H118.415L118.348 17.816H118.309C117.906 18.617 117.22 19.0174 116.256 19.0174C115.487 19.0174 114.845 18.7073 114.337 18.0872C113.829 17.467 113.575 16.662 113.575 15.6733C113.575 14.6124 113.85 13.7531 114.403 13.0968C114.939 12.485 115.595 12.1791 116.376 12.1791C117.234 12.1791 117.834 12.4753 118.176 13.069H118.203V9.3064H119.625V17.1027C119.625 17.741 119.641 18.3291 119.675 18.8686ZM118.203 16.1044V15.0115C118.203 14.8224 118.189 14.6694 118.164 14.5526C118.084 14.2022 117.912 13.9074 117.65 13.6697C117.386 13.4319 117.067 13.3123 116.7 13.3123C116.17 13.3123 115.755 13.5278 115.45 13.9603C115.148 14.3927 114.994 14.9447 114.994 15.6191C114.994 16.2671 115.139 16.7927 115.431 17.1973C115.739 17.6283 116.153 17.8439 116.673 17.8439C117.139 17.8439 117.512 17.6645 117.795 17.3044C118.069 16.972 118.203 16.5716 118.203 16.1044Z" fill="white"/>
<path d="M131.825 15.5368C131.825 16.5449 131.544 17.3708 130.983 18.0188C130.395 18.6848 129.617 19.0171 128.642 19.0171C127.705 19.0171 126.959 18.6987 126.4 18.0591C125.844 17.4209 125.566 16.6158 125.566 15.6452C125.566 14.6302 125.852 13.7973 126.427 13.1507C127.002 12.5042 127.775 12.1802 128.749 12.1802C129.686 12.1802 130.441 12.4986 131.01 13.1368C131.553 13.757 131.825 14.5579 131.825 15.5368ZM130.353 15.5841C130.353 14.9792 130.225 14.4606 129.972 14.0281C129.672 13.5053 129.249 13.2439 128.696 13.2439C128.127 13.2439 127.693 13.5053 127.394 14.0281C127.139 14.4606 127.013 14.9875 127.013 15.6105C127.013 16.2153 127.14 16.734 127.394 17.1664C127.701 17.6892 128.13 17.9506 128.683 17.9506C129.225 17.9506 129.652 17.6851 129.958 17.1525C130.22 16.7117 130.353 16.1889 130.353 15.5841Z" fill="white"/>
<path d="M139.464 18.8687H138.044V15.1144C138.044 13.9575 137.616 13.379 136.755 13.379C136.334 13.379 135.993 13.5376 135.73 13.856C135.467 14.1744 135.336 14.5498 135.336 14.9795V18.8673H133.914V14.1869C133.914 13.6113 133.898 12.9869 133.864 12.3111H135.111L135.177 13.3359H135.217C135.383 13.0175 135.63 12.7547 135.953 12.5447C136.339 12.3 136.769 12.1763 137.242 12.1763C137.837 12.1763 138.333 12.3737 138.728 12.77C139.22 13.2553 139.464 13.9797 139.464 14.9419V18.8687Z" fill="white"/>
<path d="M149.024 13.4056H147.46V16.5897C147.46 17.399 147.738 17.8036 148.288 17.8036C148.543 17.8036 148.755 17.7814 148.921 17.7355L148.958 18.8409C148.677 18.9493 148.309 19.0036 147.855 19.0036C147.293 19.0036 146.857 18.8284 146.541 18.478C146.224 18.1276 146.067 17.538 146.067 16.7107V13.4056H145.133V12.314H146.067V11.1127L147.459 10.6816V12.3127H149.023V13.4056H149.024Z" fill="white"/>
<path d="M156.545 18.8686H155.123V15.1422C155.123 13.9672 154.695 13.3791 153.837 13.3791C153.178 13.3791 152.728 13.7197 152.481 14.4011C152.439 14.5443 152.415 14.7195 152.415 14.9253V18.8672H150.995V9.3064H152.415V13.2567H152.442C152.889 12.5378 153.53 12.1791 154.361 12.1791C154.949 12.1791 155.436 12.3765 155.822 12.7728C156.304 13.2664 156.545 14.0006 156.545 14.9712V18.8686Z" fill="white"/>
<path d="M164.303 15.2813C164.303 15.5427 164.284 15.7624 164.25 15.9417H159.989C160.008 16.5897 160.212 17.0833 160.606 17.4254C160.967 17.7313 161.432 17.8842 162.001 17.8842C162.631 17.8842 163.206 17.7813 163.724 17.5742L163.946 18.5864C163.34 18.8562 162.627 18.9911 161.802 18.9911C160.812 18.9911 160.033 18.6921 159.469 18.0942C158.902 17.4963 158.622 16.694 158.622 15.6873C158.622 14.6986 158.883 13.8755 159.411 13.2192C159.961 12.5184 160.705 12.168 161.644 12.168C162.564 12.168 163.262 12.5184 163.733 13.2192C164.114 13.7754 164.303 14.4637 164.303 15.2813ZM162.947 14.9044C162.958 14.472 162.864 14.0993 162.672 13.7851C162.425 13.3805 162.05 13.1775 161.541 13.1775C161.078 13.1775 160.7 13.3749 160.411 13.7712C160.175 14.0868 160.035 14.4637 159.989 14.9044H162.947Z" fill="white"/>
</svg>
