<svg width="146" height="33" viewBox="0 0 146 33" fill="none" xmlns="http://www.w3.org/2000/svg">
<path d="M23.1219 17.2465C23.0832 13.1494 26.6416 11.1562 26.8044 11.0634C24.7891 8.26288 21.6655 7.88024 20.5678 7.84973C17.9443 7.58659 15.3995 9.34595 14.0631 9.34595C12.7 9.34595 10.6421 7.87516 8.42405 7.91838C5.56984 7.96033 2.89969 9.53536 1.43524 11.9812C-1.58703 16.9681 0.666999 24.2967 3.56256 28.3277C5.011 30.3019 6.70352 32.5062 8.91887 32.4286C11.0862 32.3434 11.8958 31.1116 14.5113 31.1116C17.1027 31.1116 17.8629 32.4286 20.1223 32.379C22.4484 32.3434 23.9128 30.396 25.3106 28.404C26.9844 26.1412 27.6566 23.9128 27.6833 23.7984C27.6286 23.7806 23.1659 22.1572 23.1219 17.2465Z" fill="white"/>
<path d="M18.8539 5.19799C20.0196 3.80855 20.8172 1.91826 20.5958 0C18.9086 0.0711879 16.7986 1.11231 15.5836 2.47124C14.5086 3.66872 13.5483 5.63147 13.7964 7.47727C15.6916 7.61202 17.6375 6.56581 18.8539 5.19799Z" fill="white"/>
<path d="M54.624 22.6501H51.595L49.9358 17.681H44.1687L42.5882 22.6501H39.6393L45.3531 5.73291H48.8822L54.624 22.6501ZM49.4357 15.5962L47.9352 11.1788C47.7765 10.7275 47.4791 9.66475 47.0403 7.99184H46.9869C46.8122 8.71135 46.5308 9.77407 46.144 11.1788L44.6702 15.5962H49.4357Z" fill="white"/>
<path d="M69.3179 16.4013C69.3179 18.4759 68.7297 20.1158 67.5533 21.3196C66.4997 22.3913 65.1913 22.9264 63.6294 22.9264C61.9436 22.9264 60.7326 22.3493 59.995 21.1951H59.9416V27.621H57.0981V14.4678C57.0981 13.1636 57.0621 11.825 56.9927 10.4521H59.4935L59.6522 12.3856H59.7056C60.6539 10.9288 62.093 10.2017 64.0242 10.2017C65.534 10.2017 66.7944 10.7699 67.8027 11.9076C68.8137 13.0466 69.3179 14.5441 69.3179 16.4013ZM66.421 16.5005C66.421 15.3132 66.1409 14.3344 65.578 13.564C64.9632 12.7606 64.1376 12.3589 63.1026 12.3589C62.4011 12.3589 61.7635 12.5826 61.194 13.0237C60.6232 13.4687 60.2497 14.0496 60.075 14.7691C59.987 15.1047 59.943 15.3793 59.943 15.5954V17.6293C59.943 18.5166 60.2284 19.2654 60.7992 19.8768C61.3701 20.4883 62.1116 20.7933 63.0239 20.7933C64.0949 20.7933 64.9285 20.3993 65.5247 19.6137C66.1222 18.8268 66.421 17.7895 66.421 16.5005Z" fill="white"/>
<path d="M84.0384 16.4013C84.0384 18.4759 83.4502 20.1158 82.2725 21.3196C81.2202 22.3913 79.9118 22.9264 78.35 22.9264C76.6641 22.9264 75.4531 22.3493 74.7169 21.1951H74.6635V27.621H71.82V14.4678C71.82 13.1636 71.784 11.825 71.7146 10.4521H74.2154L74.3741 12.3856H74.4274C75.3744 10.9288 76.8135 10.2017 78.7461 10.2017C80.2546 10.2017 81.5149 10.7699 82.5259 11.9076C83.5329 13.0466 84.0384 14.5441 84.0384 16.4013ZM81.1415 16.5005C81.1415 15.3132 80.8601 14.3344 80.2972 13.564C79.6824 12.7606 78.8595 12.3589 77.8231 12.3589C77.1203 12.3589 76.4841 12.5826 75.9132 13.0237C75.3424 13.4687 74.9703 14.0496 74.7955 14.7691C74.7088 15.1047 74.6635 15.3793 74.6635 15.5954V17.6293C74.6635 18.5166 74.9489 19.2654 75.5171 19.8768C76.0879 20.487 76.8295 20.7933 77.7445 20.7933C78.8155 20.7933 79.649 20.3993 80.2452 19.6137C80.8427 18.8268 81.1415 17.7895 81.1415 16.5005Z" fill="white"/>
<path d="M100.497 17.9064C100.497 19.3454 99.9726 20.5162 98.9203 21.42C97.7639 22.4077 96.1541 22.901 94.0854 22.901C92.1755 22.901 90.6444 22.5501 89.4854 21.8471L90.1442 19.5882C91.3926 20.3077 92.7624 20.6687 94.2548 20.6687C95.3258 20.6687 96.1594 20.4374 96.7583 19.9772C97.3544 19.517 97.6519 18.8992 97.6519 18.1288C97.6519 17.4424 97.4064 16.864 96.9143 16.3949C96.4248 15.9258 95.6072 15.4898 94.4655 15.0868C91.3579 13.9821 89.8055 12.3639 89.8055 10.2359C89.8055 8.84517 90.3496 7.70489 91.4393 6.81758C92.525 5.92901 93.9734 5.48535 95.7846 5.48535C97.3998 5.48535 98.7415 5.75358 99.8125 6.28876L99.1016 8.49813C98.1013 7.97947 96.9703 7.72015 95.7046 7.72015C94.7043 7.72015 93.9227 7.95532 93.3625 8.42313C92.8891 8.84136 92.6517 9.35111 92.6517 9.95494C92.6517 10.6236 92.9224 11.1766 93.4666 11.6113C93.9401 12.013 94.8003 12.4478 96.0487 12.9169C97.5758 13.5029 98.6975 14.1881 99.4191 14.9737C100.138 15.7568 100.497 16.7369 100.497 17.9064Z" fill="white"/>
<path d="M109.898 12.486H106.764V18.4086C106.764 19.915 107.316 20.6676 108.423 20.6676C108.931 20.6676 109.353 20.6256 109.686 20.5417L109.765 22.5998C109.205 22.7994 108.467 22.8998 107.554 22.8998C106.431 22.8998 105.553 22.5731 104.919 21.921C104.289 21.2676 103.971 20.1718 103.971 18.6324V12.4835H102.104V10.4495H103.971V8.21601L106.764 7.4126V10.4495H109.898V12.486Z" fill="white"/>
<path d="M124.04 16.4502C124.04 18.3252 123.477 19.8646 122.354 21.0685C121.176 22.3079 119.613 22.9257 117.665 22.9257C115.787 22.9257 114.292 22.3321 113.177 21.1448C112.062 19.9574 111.504 18.4587 111.504 16.6523C111.504 14.762 112.078 13.2137 113.229 12.0098C114.377 10.8047 115.927 10.2021 117.875 10.2021C119.753 10.2021 121.264 10.7958 122.405 11.9844C123.496 13.1374 124.04 14.626 124.04 16.4502ZM121.09 16.5379C121.09 15.4129 120.838 14.448 120.327 13.6433C119.731 12.6696 118.878 12.184 117.774 12.184C116.631 12.184 115.763 12.6708 115.166 13.6433C114.656 14.4493 114.404 15.4294 114.404 16.5887C114.404 17.7138 114.656 18.6786 115.166 19.482C115.781 20.4558 116.64 20.9414 117.749 20.9414C118.834 20.9414 119.687 20.4456 120.301 19.4566C120.826 18.6367 121.09 17.6616 121.09 16.5379Z" fill="white"/>
<path d="M133.283 12.8356C133.001 12.786 132.701 12.7606 132.387 12.7606C131.386 12.7606 130.613 13.1203 130.069 13.8411C129.595 14.4767 129.358 15.2801 129.358 16.25V22.6505H126.515L126.542 14.2936C126.542 12.8877 126.506 11.6076 126.435 10.4534H128.912L129.016 12.7873H129.095C129.395 11.9852 129.868 11.3394 130.517 10.8551C131.15 10.419 131.834 10.2017 132.572 10.2017C132.835 10.2017 133.072 10.2195 133.283 10.2512V12.8356Z" fill="white"/>
<path d="M146 15.9749C146 16.4605 145.967 16.8698 145.896 17.2042H137.365C137.399 18.4093 137.811 19.3309 138.603 19.9665C139.322 20.5347 140.252 20.8195 141.393 20.8195C142.656 20.8195 143.809 20.6275 144.845 20.2424L145.29 22.1238C144.079 22.6272 142.65 22.8776 141 22.8776C139.015 22.8776 137.457 22.3208 136.324 21.2085C135.193 20.0962 134.626 18.6025 134.626 16.7287C134.626 14.8893 135.153 13.3575 136.208 12.1358C137.312 10.8316 138.805 10.1794 140.682 10.1794C142.527 10.1794 143.923 10.8316 144.872 12.1358C145.623 13.1719 146 14.4533 146 15.9749ZM143.289 15.2719C143.307 14.4685 143.122 13.7744 142.736 13.1884C142.244 12.4346 141.488 12.0583 140.47 12.0583C139.541 12.0583 138.785 12.4257 138.207 13.163C137.734 13.749 137.452 14.452 137.365 15.2706H143.289V15.2719Z" fill="white"/>
</svg>
