<svg width="150" height="46" viewBox="0 0 150 46" fill="none" xmlns="http://www.w3.org/2000/svg">
<rect y="0.0490723" width="150" height="45.9016" rx="7" fill="white"/>
<path d="M33.4756 22.7535C33.4434 19.0802 36.4078 17.2931 36.5434 17.2099C34.8645 14.699 32.2623 14.356 31.3478 14.3286C29.1623 14.0927 27.0423 15.6701 25.9289 15.6701C24.7934 15.6701 23.0789 14.3514 21.2311 14.3902C18.8534 14.4278 16.6289 15.8399 15.4089 18.0328C12.8911 22.5039 14.7689 29.0745 17.1811 32.6886C18.3878 34.4586 19.7978 36.4349 21.6434 36.3654C23.4489 36.289 24.1234 35.1846 26.3023 35.1846C28.4611 35.1846 29.0945 36.3654 30.9767 36.3209C32.9145 36.289 34.1345 34.5429 35.2989 32.757C36.6934 30.7282 37.2534 28.7303 37.2756 28.6277C37.23 28.6118 33.5123 27.1563 33.4756 22.7535Z" fill="#2D2D2D"/>
<path d="M29.92 11.9511C30.8911 10.7054 31.5556 9.01063 31.3711 7.29077C29.9656 7.3546 28.2078 8.28804 27.1956 9.50641C26.3 10.58 25.5 12.3398 25.7067 13.9947C27.2856 14.1155 28.9067 13.1775 29.92 11.9511Z" fill="#2D2D2D"/>
<path d="M59.6057 36.1113H57.0823L55.7001 31.6562H50.8956L49.579 36.1113H47.1223L51.8823 20.9438H54.8223L59.6057 36.1113ZM55.2834 29.787L54.0334 25.8264C53.9012 25.4218 53.6534 24.469 53.2879 22.9691H53.2434C53.0979 23.6142 52.8634 24.567 52.5412 25.8264L51.3134 29.787H55.2834V29.787Z" fill="#2D2D2D"/>
<path d="M71.8469 30.5086C71.8469 32.3687 71.3569 33.8389 70.3769 34.9183C69.4991 35.8791 68.4091 36.3589 67.108 36.3589C65.7035 36.3589 64.6947 35.8414 64.0802 34.8066H64.0358V40.5679H61.6669V28.7751C61.6669 27.6058 61.6369 26.4056 61.5791 25.1747H63.6624L63.7947 26.9082H63.8391C64.6291 25.6021 65.828 24.9502 67.4369 24.9502C68.6947 24.9502 69.7447 25.4597 70.5847 26.4797C71.4269 27.5009 71.8469 28.8435 71.8469 30.5086ZM69.4336 30.5975C69.4336 29.533 69.2002 28.6555 68.7313 27.9648C68.2191 27.2445 67.5313 26.8843 66.6691 26.8843C66.0847 26.8843 65.5535 27.0849 65.0791 27.4804C64.6035 27.8793 64.2924 28.4002 64.1469 29.0452C64.0735 29.3461 64.0369 29.5923 64.0369 29.7861V31.6096C64.0369 32.4052 64.2747 33.0765 64.7502 33.6247C65.2258 34.1729 65.8435 34.4464 66.6036 34.4464C67.4958 34.4464 68.1902 34.0931 68.6869 33.3887C69.1847 32.6833 69.4336 31.7532 69.4336 30.5975Z" fill="#2D2D2D"/>
<path d="M84.1102 30.5086C84.1102 32.3687 83.6202 33.8389 82.6391 34.9183C81.7624 35.8791 80.6724 36.3589 79.3713 36.3589C77.9668 36.3589 76.9579 35.8414 76.3446 34.8066H76.3002V40.5679H73.9313V28.7751C73.9313 27.6058 73.9013 26.4056 73.8435 25.1747H75.9268L76.0591 26.9082H76.1035C76.8924 25.6021 78.0913 24.9502 79.7013 24.9502C80.958 24.9502 82.008 25.4597 82.8502 26.4797C83.6891 27.5009 84.1102 28.8435 84.1102 30.5086ZM81.6968 30.5975C81.6968 29.533 81.4624 28.6555 80.9935 27.9648C80.4813 27.2445 79.7957 26.8843 78.9324 26.8843C78.3468 26.8843 77.8168 27.0849 77.3413 27.4804C76.8657 27.8793 76.5557 28.4002 76.4102 29.0452C76.3379 29.3461 76.3002 29.5923 76.3002 29.7861V31.6096C76.3002 32.4052 76.5379 33.0765 77.0113 33.6247C77.4868 34.1717 78.1046 34.4464 78.8668 34.4464C79.7591 34.4464 80.4535 34.0931 80.9502 33.3887C81.448 32.6833 81.6968 31.7532 81.6968 30.5975Z" fill="#2D2D2D"/>
<path d="M97.8213 31.858C97.8213 33.1482 97.3846 34.1979 96.508 35.0083C95.5446 35.8938 94.2035 36.3361 92.4802 36.3361C90.8891 36.3361 89.6135 36.0215 88.6479 35.3912L89.1968 33.3659C90.2368 34.011 91.378 34.3347 92.6213 34.3347C93.5135 34.3347 94.2079 34.1272 94.7068 33.7147C95.2035 33.3021 95.4513 32.7482 95.4513 32.0575C95.4513 31.442 95.2468 30.9235 94.8368 30.5029C94.4291 30.0823 93.7479 29.6914 92.7968 29.3301C90.2079 28.3397 88.9146 26.8888 88.9146 24.9809C88.9146 23.734 89.368 22.7117 90.2757 21.9161C91.1802 21.1194 92.3868 20.7217 93.8957 20.7217C95.2413 20.7217 96.3591 20.9622 97.2513 21.442L96.6591 23.4229C95.8257 22.9578 94.8835 22.7253 93.8291 22.7253C92.9957 22.7253 92.3446 22.9362 91.878 23.3556C91.4835 23.7306 91.2857 24.1876 91.2857 24.729C91.2857 25.3285 91.5113 25.8243 91.9646 26.2141C92.3591 26.5742 93.0757 26.964 94.1157 27.3846C95.388 27.91 96.3224 28.5243 96.9235 29.2287C97.5224 29.9307 97.8213 30.8095 97.8213 31.858Z" fill="#2D2D2D"/>
<path d="M105.653 26.9979H103.042V32.308C103.042 33.6585 103.502 34.3333 104.425 34.3333C104.848 34.3333 105.199 34.2957 105.477 34.2204L105.542 36.0657C105.076 36.2446 104.461 36.3346 103.7 36.3346C102.765 36.3346 102.033 36.0417 101.506 35.457C100.98 34.8712 100.716 33.8888 100.716 32.5085V26.9956H99.1602V25.1721H100.716V23.1695L103.042 22.4492V25.1721H105.653V26.9979Z" fill="#2D2D2D"/>
<path d="M117.435 30.553C117.435 32.2341 116.966 33.6143 116.03 34.6936C115.049 35.8049 113.747 36.3588 112.123 36.3588C110.559 36.3588 109.313 35.8265 108.385 34.762C107.456 33.6975 106.991 32.3538 106.991 30.7342C106.991 29.0394 107.469 27.6512 108.428 26.5719C109.385 25.4914 110.676 24.9512 112.299 24.9512C113.863 24.9512 115.122 25.4834 116.072 26.5491C116.981 27.5828 117.435 28.9175 117.435 30.553ZM114.977 30.6316C114.977 29.6229 114.767 28.7579 114.341 28.0364C113.845 27.1634 113.135 26.728 112.215 26.728C111.262 26.728 110.539 27.1645 110.042 28.0364C109.617 28.759 109.407 29.6378 109.407 30.6772C109.407 31.6859 109.617 32.5509 110.042 33.2712C110.555 34.1443 111.27 34.5797 112.193 34.5797C113.098 34.5797 113.808 34.1352 114.32 33.2484C114.757 32.5133 114.977 31.6391 114.977 30.6316Z" fill="#2D2D2D"/>
<path d="M125.135 27.3117C124.9 27.2672 124.65 27.2445 124.388 27.2445C123.555 27.2445 122.91 27.567 122.457 28.2132C122.062 28.7831 121.865 29.5034 121.865 30.373V36.1115H119.497L119.519 28.619C119.519 27.3584 119.489 26.2107 119.43 25.1759H121.494L121.58 27.2684H121.646C121.896 26.5492 122.29 25.9702 122.83 25.536C123.358 25.1451 123.928 24.9502 124.542 24.9502C124.761 24.9502 124.959 24.9662 125.135 24.9946V27.3117Z" fill="#2D2D2D"/>
<path d="M135.729 30.1255C135.729 30.5609 135.701 30.9279 135.642 31.2276H128.536C128.564 32.3081 128.907 33.1344 129.567 33.7043C130.166 34.2137 130.94 34.469 131.891 34.469C132.944 34.469 133.904 34.2969 134.767 33.9516L135.138 35.6384C134.129 36.0897 132.938 36.3142 131.564 36.3142C129.91 36.3142 128.612 35.815 127.668 34.8178C126.726 33.8205 126.254 32.4813 126.254 30.8014C126.254 29.1522 126.692 27.7788 127.571 26.6835C128.491 25.5141 129.735 24.9294 131.299 24.9294C132.836 24.9294 133.999 25.5141 134.789 26.6835C135.415 27.6124 135.729 28.7612 135.729 30.1255ZM133.47 29.4952C133.486 28.7749 133.331 28.1526 133.01 27.6272C132.6 26.9513 131.97 26.614 131.122 26.614C130.348 26.614 129.718 26.9434 129.237 27.6044C128.842 28.1298 128.608 28.7601 128.536 29.4941H133.47V29.4952Z" fill="#2D2D2D"/>
<path d="M49.2813 15.486C49.168 15.486 49.0346 15.4794 48.8813 15.466C48.7346 15.4594 48.5813 15.446 48.4213 15.426C48.268 15.4127 48.1213 15.396 47.9813 15.376C47.8413 15.3494 47.7213 15.3227 47.6213 15.296V8.62603C47.7413 8.59269 47.8746 8.56602 48.0213 8.54603C48.168 8.51936 48.318 8.49936 48.4713 8.48603C48.6313 8.46603 48.7846 8.45269 48.9313 8.44603C49.0846 8.43936 49.2246 8.43602 49.3513 8.43602C49.7246 8.43602 50.078 8.46602 50.4113 8.52602C50.7513 8.58602 51.048 8.68602 51.3013 8.82603C51.5546 8.96602 51.7546 9.15269 51.9013 9.38603C52.0546 9.61269 52.1313 9.89602 52.1313 10.236C52.1313 10.6094 52.0346 10.9294 51.8413 11.196C51.6546 11.456 51.4013 11.636 51.0813 11.736C51.2813 11.7827 51.4646 11.8494 51.6313 11.936C51.798 12.0227 51.9446 12.136 52.0713 12.276C52.198 12.4094 52.2946 12.576 52.3613 12.776C52.4346 12.9694 52.4713 13.2027 52.4713 13.476C52.4713 14.1294 52.2113 14.6294 51.6913 14.976C51.1713 15.316 50.368 15.486 49.2813 15.486ZM48.3013 12.106V14.836C48.4013 14.8494 48.5513 14.866 48.7513 14.886C48.9513 14.8994 49.1546 14.906 49.3613 14.906C49.668 14.906 49.9646 14.886 50.2513 14.846C50.5446 14.806 50.8013 14.7327 51.0213 14.626C51.2413 14.5194 51.418 14.3727 51.5513 14.186C51.6846 13.9994 51.7513 13.7594 51.7513 13.466C51.7513 13.1994 51.7046 12.9794 51.6113 12.806C51.518 12.626 51.3846 12.486 51.2113 12.386C51.038 12.2794 50.8246 12.206 50.5713 12.166C50.3246 12.126 50.048 12.106 49.7413 12.106H48.3013ZM48.3013 11.526H49.6213C49.868 11.526 50.1013 11.5094 50.3213 11.476C50.5413 11.436 50.7313 11.3694 50.8913 11.276C51.058 11.176 51.188 11.046 51.2813 10.886C51.3746 10.7194 51.4213 10.5094 51.4213 10.256C51.4213 10.0294 51.3713 9.83936 51.2713 9.68603C51.1713 9.52603 51.028 9.39602 50.8413 9.29603C50.6613 9.19603 50.4446 9.12603 50.1913 9.08603C49.938 9.03936 49.658 9.01603 49.3513 9.01603C49.1046 9.01603 48.8946 9.02269 48.7213 9.03602C48.5546 9.04936 48.4146 9.06603 48.3013 9.08603V11.526ZM56.0101 14.956C56.2635 14.956 56.4835 14.9494 56.6701 14.936C56.8635 14.916 57.0268 14.8927 57.1601 14.866V13.046C57.0868 13.0127 56.9701 12.9794 56.8101 12.946C56.6501 12.906 56.4301 12.886 56.1501 12.886C55.9901 12.886 55.8235 12.8994 55.6501 12.926C55.4768 12.946 55.3168 12.996 55.1701 13.076C55.0235 13.1494 54.9035 13.2527 54.8101 13.386C54.7168 13.5194 54.6701 13.696 54.6701 13.916C54.6701 14.1094 54.7001 14.2727 54.7601 14.406C54.8268 14.5394 54.9168 14.646 55.0301 14.726C55.1501 14.806 55.2901 14.866 55.4501 14.906C55.6168 14.9394 55.8035 14.956 56.0101 14.956ZM55.9501 10.136C56.2901 10.136 56.5768 10.186 56.8101 10.286C57.0501 10.3794 57.2435 10.5127 57.3901 10.686C57.5368 10.8527 57.6435 11.0527 57.7101 11.286C57.7768 11.5194 57.8101 11.7727 57.8101 12.046V15.306C57.7435 15.326 57.6468 15.3494 57.5201 15.376C57.3935 15.396 57.2468 15.4194 57.0801 15.446C56.9135 15.4727 56.7268 15.4927 56.5201 15.506C56.3201 15.526 56.1135 15.536 55.9001 15.536C55.6268 15.536 55.3735 15.506 55.1401 15.446C54.9135 15.386 54.7135 15.2927 54.5401 15.166C54.3735 15.0327 54.2401 14.866 54.1401 14.666C54.0468 14.4594 54.0001 14.2094 54.0001 13.916C54.0001 13.636 54.0535 13.396 54.1601 13.196C54.2668 12.996 54.4168 12.8327 54.6101 12.706C54.8035 12.5727 55.0335 12.476 55.3001 12.416C55.5668 12.356 55.8568 12.326 56.1701 12.326C56.2635 12.326 56.3601 12.3327 56.4601 12.346C56.5668 12.3527 56.6668 12.366 56.7601 12.386C56.8601 12.3994 56.9435 12.416 57.0101 12.436C57.0835 12.4494 57.1335 12.4627 57.1601 12.476V12.156C57.1601 11.976 57.1468 11.8027 57.1201 11.636C57.0935 11.4627 57.0335 11.3094 56.9401 11.176C56.8535 11.036 56.7268 10.926 56.5601 10.846C56.4001 10.7594 56.1868 10.716 55.9201 10.716C55.5401 10.716 55.2568 10.7427 55.0701 10.796C54.8835 10.8494 54.7468 10.8927 54.6601 10.926L54.5701 10.356C54.6835 10.3027 54.8568 10.2527 55.0901 10.206C55.3301 10.1594 55.6168 10.136 55.9501 10.136ZM60.618 15.426H59.968V10.256H60.618V15.426ZM60.768 8.69603C60.768 8.84936 60.7214 8.97269 60.628 9.06603C60.5347 9.15269 60.4214 9.19603 60.288 9.19603C60.1547 9.19603 60.0414 9.15269 59.948 9.06603C59.8547 8.97269 59.808 8.84936 59.808 8.69603C59.808 8.54269 59.8547 8.42269 59.948 8.33602C60.0414 8.24269 60.1547 8.19602 60.288 8.19602C60.4214 8.19602 60.5347 8.24269 60.628 8.33602C60.7214 8.42269 60.768 8.54269 60.768 8.69603ZM64.4611 13.086C64.3144 13.2794 64.1677 13.4827 64.0211 13.696C63.8744 13.9094 63.7311 14.1194 63.5911 14.326C63.4577 14.5327 63.3344 14.7327 63.2211 14.926C63.1077 15.1127 63.0111 15.2794 62.9311 15.426H62.2611C62.5344 14.9127 62.8211 14.436 63.1211 13.996C63.4211 13.5494 63.7277 13.1127 64.0411 12.686L62.3611 10.256H63.1211L64.4611 12.236L65.8211 10.256H66.5311L64.8811 12.646C65.0211 12.8327 65.1711 13.036 65.3311 13.256C65.4911 13.476 65.6511 13.706 65.8111 13.946C65.9711 14.1794 66.1244 14.4227 66.2711 14.676C66.4244 14.9294 66.5644 15.1794 66.6911 15.426H65.9911C65.9111 15.2794 65.8144 15.1127 65.7011 14.926C65.5877 14.7327 65.4611 14.5327 65.3211 14.326C65.1877 14.1194 65.0444 13.9094 64.8911 13.696C64.7444 13.4827 64.6011 13.2794 64.4611 13.086ZM69.9613 14.956C70.2146 14.956 70.4346 14.9494 70.6213 14.936C70.8146 14.916 70.978 14.8927 71.1113 14.866V13.046C71.038 13.0127 70.9213 12.9794 70.7613 12.946C70.6013 12.906 70.3813 12.886 70.1013 12.886C69.9413 12.886 69.7746 12.8994 69.6013 12.926C69.428 12.946 69.268 12.996 69.1213 13.076C68.9746 13.1494 68.8546 13.2527 68.7613 13.386C68.668 13.5194 68.6213 13.696 68.6213 13.916C68.6213 14.1094 68.6513 14.2727 68.7113 14.406C68.778 14.5394 68.868 14.646 68.9813 14.726C69.1013 14.806 69.2413 14.866 69.4013 14.906C69.568 14.9394 69.7546 14.956 69.9613 14.956ZM69.9013 10.136C70.2413 10.136 70.528 10.186 70.7613 10.286C71.0013 10.3794 71.1946 10.5127 71.3413 10.686C71.488 10.8527 71.5946 11.0527 71.6613 11.286C71.728 11.5194 71.7613 11.7727 71.7613 12.046V15.306C71.6946 15.326 71.598 15.3494 71.4713 15.376C71.3446 15.396 71.198 15.4194 71.0313 15.446C70.8646 15.4727 70.678 15.4927 70.4713 15.506C70.2713 15.526 70.0646 15.536 69.8513 15.536C69.578 15.536 69.3246 15.506 69.0913 15.446C68.8646 15.386 68.6646 15.2927 68.4913 15.166C68.3246 15.0327 68.1913 14.866 68.0913 14.666C67.998 14.4594 67.9513 14.2094 67.9513 13.916C67.9513 13.636 68.0046 13.396 68.1113 13.196C68.218 12.996 68.368 12.8327 68.5613 12.706C68.7546 12.5727 68.9846 12.476 69.2513 12.416C69.518 12.356 69.808 12.326 70.1213 12.326C70.2146 12.326 70.3113 12.3327 70.4113 12.346C70.518 12.3527 70.618 12.366 70.7113 12.386C70.8113 12.3994 70.8946 12.416 70.9613 12.436C71.0346 12.4494 71.0846 12.4627 71.1113 12.476V12.156C71.1113 11.976 71.098 11.8027 71.0713 11.636C71.0446 11.4627 70.9846 11.3094 70.8913 11.176C70.8046 11.036 70.678 10.926 70.5113 10.846C70.3513 10.7594 70.138 10.716 69.8713 10.716C69.4913 10.716 69.208 10.7427 69.0213 10.796C68.8346 10.8494 68.698 10.8927 68.6113 10.926L68.5213 10.356C68.6346 10.3027 68.808 10.2527 69.0413 10.206C69.2813 10.1594 69.568 10.136 69.9013 10.136ZM75.6792 10.156C75.8925 10.156 76.0925 10.1727 76.2792 10.206C76.4725 10.2394 76.6059 10.2727 76.6792 10.306L76.5492 10.866C76.4959 10.8394 76.3859 10.8127 76.2192 10.786C76.0592 10.7527 75.8459 10.736 75.5792 10.736C75.2992 10.736 75.0725 10.756 74.8992 10.796C74.7325 10.836 74.6225 10.8694 74.5692 10.896V15.426H73.9192V10.496C74.0859 10.4227 74.3159 10.3494 74.6092 10.276C74.9025 10.196 75.2592 10.156 75.6792 10.156ZM80.9348 10.436C81.1282 10.3827 81.3882 10.3227 81.7148 10.256C82.0415 10.1894 82.4415 10.156 82.9148 10.156C83.3082 10.156 83.6348 10.2127 83.8948 10.326C84.1615 10.4394 84.3715 10.6027 84.5248 10.816C84.6848 11.0227 84.7982 11.2727 84.8648 11.566C84.9315 11.8594 84.9648 12.1827 84.9648 12.536V15.426H84.3148V12.746C84.3148 12.3794 84.2882 12.0694 84.2348 11.816C84.1882 11.5627 84.1048 11.356 83.9848 11.196C83.8715 11.036 83.7182 10.9227 83.5248 10.856C83.3382 10.7827 83.1015 10.746 82.8148 10.746C82.5082 10.746 82.2415 10.7627 82.0148 10.796C81.7948 10.8294 81.6515 10.8594 81.5848 10.886V15.426H80.9348V10.436ZM88.7582 14.956C89.0115 14.956 89.2315 14.9494 89.4182 14.936C89.6115 14.916 89.7749 14.8927 89.9082 14.866V13.046C89.8349 13.0127 89.7182 12.9794 89.5582 12.946C89.3982 12.906 89.1782 12.886 88.8982 12.886C88.7382 12.886 88.5715 12.8994 88.3982 12.926C88.2249 12.946 88.0649 12.996 87.9182 13.076C87.7715 13.1494 87.6515 13.2527 87.5582 13.386C87.4649 13.5194 87.4182 13.696 87.4182 13.916C87.4182 14.1094 87.4482 14.2727 87.5082 14.406C87.5749 14.5394 87.6649 14.646 87.7782 14.726C87.8982 14.806 88.0382 14.866 88.1982 14.906C88.3649 14.9394 88.5515 14.956 88.7582 14.956ZM88.6982 10.136C89.0382 10.136 89.3249 10.186 89.5582 10.286C89.7982 10.3794 89.9915 10.5127 90.1382 10.686C90.2849 10.8527 90.3915 11.0527 90.4582 11.286C90.5249 11.5194 90.5582 11.7727 90.5582 12.046V15.306C90.4915 15.326 90.3949 15.3494 90.2682 15.376C90.1415 15.396 89.9949 15.4194 89.8282 15.446C89.6615 15.4727 89.4749 15.4927 89.2682 15.506C89.0682 15.526 88.8615 15.536 88.6482 15.536C88.3749 15.536 88.1215 15.506 87.8882 15.446C87.6615 15.386 87.4615 15.2927 87.2882 15.166C87.1215 15.0327 86.9882 14.866 86.8882 14.666C86.7949 14.4594 86.7482 14.2094 86.7482 13.916C86.7482 13.636 86.8015 13.396 86.9082 13.196C87.0149 12.996 87.1649 12.8327 87.3582 12.706C87.5515 12.5727 87.7815 12.476 88.0482 12.416C88.3149 12.356 88.6049 12.326 88.9182 12.326C89.0115 12.326 89.1082 12.3327 89.2082 12.346C89.3149 12.3527 89.4149 12.366 89.5082 12.386C89.6082 12.3994 89.6915 12.416 89.7582 12.436C89.8315 12.4494 89.8815 12.4627 89.9082 12.476V12.156C89.9082 11.976 89.8949 11.8027 89.8682 11.636C89.8415 11.4627 89.7815 11.3094 89.6882 11.176C89.6015 11.036 89.4749 10.926 89.3082 10.846C89.1482 10.7594 88.9349 10.716 88.6682 10.716C88.2882 10.716 88.0049 10.7427 87.8182 10.796C87.6315 10.8494 87.4949 10.8927 87.4082 10.926L87.3182 10.356C87.4315 10.3027 87.6049 10.2527 87.8382 10.206C88.0782 10.1594 88.3649 10.136 88.6982 10.136Z" fill="#2D2D2D"/>
</svg>
