<svg width="150" height="46" viewBox="0 0 150 46" fill="none" xmlns="http://www.w3.org/2000/svg">
<rect width="150" height="45.6522" rx="7" fill="white"/>
<path d="M75.7055 24.8263C73.0958 24.8263 70.9639 26.8664 70.9639 29.6811C70.9639 32.473 73.0958 34.5345 75.7055 34.5345C78.3208 34.5345 80.4527 32.473 80.4527 29.6811C80.4527 26.8664 78.3208 24.8263 75.7055 24.8263ZM75.7055 32.6228C74.2736 32.6228 73.0416 31.4087 73.0416 29.6811C73.0416 27.9306 74.2736 26.738 75.7055 26.738C77.1375 26.738 78.375 27.9306 78.375 29.6811C78.375 31.4087 77.1375 32.6228 75.7055 32.6228V32.6228ZM65.3597 24.8263C62.7444 24.8263 60.618 26.8664 60.618 29.6811C60.618 32.473 62.7444 34.5345 65.3597 34.5345C67.9736 34.5345 70.1013 32.473 70.1013 29.6811C70.1013 26.8664 67.9736 24.8263 65.3597 24.8263ZM65.3597 32.6228C63.9264 32.6228 62.6902 31.4087 62.6902 29.6811C62.6902 27.9306 63.9264 26.738 65.3597 26.738C66.7916 26.738 68.0236 27.9306 68.0236 29.6811C68.0236 31.4087 66.7916 32.6228 65.3597 32.6228ZM53.0486 26.3143V28.3772H57.8444C57.7041 29.5299 57.3291 30.3773 56.7541 30.9679C56.0541 31.6812 54.9639 32.473 53.0486 32.473C50.0972 32.473 47.7861 30.0263 47.7861 26.9948C47.7861 23.9632 50.0972 21.5165 53.0486 21.5165C54.6444 21.5165 55.8055 22.1571 56.6625 22.9874L58.0777 21.5336C56.8791 20.3581 55.2847 19.4551 53.0486 19.4551C49.0014 19.4551 45.6 22.8376 45.6 26.9948C45.6 31.152 49.0014 34.5345 53.0486 34.5345C55.2361 34.5345 56.8791 33.7983 58.1708 32.4174C59.4944 31.0578 59.9069 29.1461 59.9069 27.6025C59.9069 27.1232 59.868 26.6823 59.7986 26.3143H53.0486ZM103.39 27.9135C103 26.8279 101.796 24.8263 99.343 24.8263C96.9124 24.8263 94.8888 26.7936 94.8888 29.6811C94.8888 32.4003 96.8916 34.5345 99.5763 34.5345C101.747 34.5345 103 33.1749 103.515 32.3831L101.904 31.2804C101.367 32.0878 100.635 32.6228 99.5763 32.6228C98.5249 32.6228 97.7708 32.1278 97.2874 31.152L103.608 28.4656L103.39 27.9135V27.9135ZM96.9458 29.5299C96.8916 27.6581 98.3611 26.6995 99.4138 26.6995C100.239 26.6995 100.939 27.1232 101.172 27.7295L96.9458 29.5299V29.5299ZM91.8083 34.2392H93.8861V19.9729H91.8083V34.2392ZM88.4055 25.9077H88.3361C87.8694 25.3399 86.9791 24.8263 85.8513 24.8263C83.4847 24.8263 81.3208 26.9605 81.3208 29.6968C81.3208 32.4174 83.4847 34.5345 85.8513 34.5345C86.9791 34.5345 87.8694 34.0166 88.3361 33.4317H88.4055V34.1279C88.4055 35.9839 87.4402 36.9811 85.8833 36.9811C84.6138 36.9811 83.8263 36.0396 83.5013 35.2478L81.6944 36.0225C82.2152 37.3093 83.5944 38.8928 85.8833 38.8928C88.3194 38.8928 90.375 37.4205 90.375 33.8383V25.1216H88.4055V25.9077V25.9077ZM86.0291 32.6228C84.5972 32.6228 83.3986 31.3916 83.3986 29.6968C83.3986 27.9863 84.5972 26.738 86.0291 26.738C87.4402 26.738 88.5527 27.9863 88.5527 29.6968C88.5527 31.3916 87.4402 32.6228 86.0291 32.6228V32.6228ZM113.118 19.9729H108.149V34.2392H110.221V28.8337H113.118C115.419 28.8337 117.676 27.1232 117.676 24.4026C117.676 21.6834 115.414 19.9729 113.118 19.9729V19.9729ZM113.172 26.8493H110.221V21.9574H113.172C114.719 21.9574 115.603 23.277 115.603 24.4026C115.603 25.5068 114.719 26.8493 113.172 26.8493ZM125.982 24.7992C124.485 24.7992 122.928 25.4783 122.287 26.9834L124.126 27.7751C124.522 26.9834 125.25 26.7266 126.019 26.7266C127.094 26.7266 128.185 27.3899 128.201 28.5612V28.711C127.826 28.4884 127.024 28.1589 126.036 28.1589C124.055 28.1589 122.037 29.2788 122.037 31.3688C122.037 33.2805 123.66 34.5117 125.483 34.5117C126.878 34.5117 127.647 33.8654 128.13 33.1136H128.201V34.2163H130.203V28.7438C130.203 26.2144 128.364 24.7992 125.982 24.7992ZM125.732 32.6171C125.054 32.6171 124.11 32.2719 124.11 31.4087C124.11 30.3045 125.287 29.8808 126.307 29.8808C127.219 29.8808 127.647 30.0877 128.201 30.3602C128.039 31.6812 126.932 32.6171 125.732 32.6171V32.6171ZM137.494 25.1116L135.112 31.296H135.042L132.579 25.1116H130.344L134.044 33.7541L131.933 38.5633H134.099L139.8 25.1116H137.494V25.1116ZM118.815 34.2392H120.893V19.9729H118.815V34.2392Z" fill="#2D2D2D"/>
<path d="M24.7373 22.8261L11.7895 9.53182C11.7376 9.71526 11.7056 9.93933 11.7056 10.209V35.4489C11.7056 35.7164 11.7371 35.939 11.7883 36.1216L24.7373 22.8261Z" stroke="#2D2D2D"/>
<path d="M26.1511 22.8265L30.1385 26.9272L35.2544 23.9426C35.2545 23.9426 35.2545 23.9426 35.2545 23.9426C35.911 23.5586 36.1105 23.134 36.1105 22.827C36.1105 22.5206 35.9116 22.0977 35.2559 21.7166L35.2546 21.7158L30.1416 18.7276L26.1511 22.8265Z" stroke="#2D2D2D"/>
<mask id="path-5-inside-1_306_486" fill="white">
<path d="M30.1374 27.6466L25.4444 22.826L11.5944 37.0538C12.1096 37.6102 12.9499 37.6772 13.9055 37.1208L30.1374 27.6466"/>
</mask>
<path d="M25.4444 22.826L24.5414 21.9674L25.4443 21.0399L26.3473 21.9674L25.4444 22.826ZM11.5944 37.0538L10.6701 37.8899L9.87616 37.0327L10.6914 36.1952L11.5944 37.0538ZM13.9055 37.1208L14.5426 38.1872L14.5415 38.1878L13.9055 37.1208ZM29.2345 28.5053L24.5415 23.6847L26.3473 21.9674L31.0403 26.7879L29.2345 28.5053ZM26.3473 23.6847L12.4973 37.9124L10.6914 36.1952L24.5414 21.9674L26.3473 23.6847ZM12.5186 36.2176C12.547 36.2483 12.5705 36.2644 12.6387 36.2673C12.7305 36.2712 12.9412 36.2449 13.2695 36.0538L14.5415 38.1878C13.2839 38.9201 11.728 39.0323 10.6701 37.8899L12.5186 36.2176ZM13.2683 36.0545L29.5003 26.5803L30.7746 28.713L14.5426 38.1872L13.2683 36.0545Z" fill="#2D2D2D" mask="url(#path-5-inside-1_306_486)"/>
<path d="M12.626 8.77037L25.4443 21.933L29.1366 18.1403L13.5899 9.06612C13.5894 9.06583 13.5889 9.06555 13.5884 9.06527C13.1934 8.83786 12.8758 8.75974 12.626 8.77037Z" stroke="#2D2D2D"/>
<path d="M52.0522 11.8669C52.0522 12.4602 51.9589 12.9769 51.7722 13.4169C51.5856 13.8569 51.3222 14.2236 50.9822 14.5169C50.6489 14.8102 50.2489 15.0302 49.7822 15.1769C49.3156 15.3236 48.8022 15.3969 48.2422 15.3969C47.9622 15.3969 47.6689 15.3802 47.3622 15.3469C47.0556 15.3202 46.7856 15.2769 46.5522 15.2169V8.53691C46.7856 8.47025 47.0556 8.42358 47.3622 8.39691C47.6689 8.36358 47.9622 8.34691 48.2422 8.34691C48.8022 8.34691 49.3156 8.42025 49.7822 8.56691C50.2489 8.71358 50.6489 8.93358 50.9822 9.22691C51.3222 9.52025 51.5856 9.88691 51.7722 10.3269C51.9589 10.7669 52.0522 11.2802 52.0522 11.8669ZM47.2322 14.7369C47.2722 14.7436 47.3722 14.7569 47.5322 14.7769C47.6989 14.7969 47.9622 14.8069 48.3222 14.8069C48.8222 14.8069 49.2589 14.7402 49.6322 14.6069C50.0056 14.4669 50.3189 14.2702 50.5722 14.0169C50.8256 13.7636 51.0156 13.4569 51.1422 13.0969C51.2689 12.7302 51.3322 12.3202 51.3322 11.8669C51.3322 11.4136 51.2689 11.0069 51.1422 10.6469C51.0156 10.2869 50.8256 9.98025 50.5722 9.72691C50.3189 9.47358 50.0056 9.28025 49.6322 9.14691C49.2589 9.00691 48.8222 8.93691 48.3222 8.93691C47.9622 8.93691 47.6989 8.94691 47.5322 8.96691C47.3722 8.98691 47.2722 9.00025 47.2322 9.00691V14.7369ZM54.6837 15.3369H54.0337V10.1669H54.6837V15.3369ZM54.8337 8.60691C54.8337 8.76025 54.787 8.88358 54.6937 8.97691C54.6004 9.06358 54.487 9.10691 54.3537 9.10691C54.2204 9.10691 54.107 9.06358 54.0137 8.97691C53.9204 8.88358 53.8737 8.76025 53.8737 8.60691C53.8737 8.45358 53.9204 8.33358 54.0137 8.24691C54.107 8.15358 54.2204 8.10691 54.3537 8.10691C54.487 8.10691 54.6004 8.15358 54.6937 8.24691C54.787 8.33358 54.8337 8.45358 54.8337 8.60691ZM57.9668 14.8769C58.3401 14.8769 58.6468 14.8169 58.8868 14.6969C59.1334 14.5702 59.2568 14.3602 59.2568 14.0669C59.2568 13.9269 59.2334 13.8069 59.1868 13.7069C59.1468 13.6069 59.0768 13.5169 58.9768 13.4369C58.8768 13.3569 58.7434 13.2802 58.5768 13.2069C58.4168 13.1336 58.2168 13.0469 57.9768 12.9469C57.7834 12.8669 57.6001 12.7869 57.4268 12.7069C57.2534 12.6202 57.1001 12.5236 56.9668 12.4169C56.8334 12.3036 56.7268 12.1702 56.6468 12.0169C56.5668 11.8636 56.5268 11.6769 56.5268 11.4569C56.5268 11.0369 56.6834 10.6969 56.9968 10.4369C57.3168 10.1769 57.7534 10.0469 58.3068 10.0469C58.6601 10.0469 58.9501 10.0769 59.1768 10.1369C59.4101 10.1969 59.5734 10.2502 59.6668 10.2969L59.5168 10.8769C59.4368 10.8369 59.3001 10.7836 59.1068 10.7169C58.9201 10.6502 58.6434 10.6169 58.2768 10.6169C58.1301 10.6169 57.9901 10.6336 57.8568 10.6669C57.7301 10.6936 57.6168 10.7402 57.5168 10.8069C57.4168 10.8669 57.3368 10.9469 57.2768 11.0469C57.2168 11.1402 57.1868 11.2569 57.1868 11.3969C57.1868 11.5369 57.2134 11.6569 57.2668 11.7569C57.3201 11.8569 57.3968 11.9469 57.4968 12.0269C57.6034 12.1002 57.7301 12.1702 57.8768 12.2369C58.0301 12.3036 58.2034 12.3769 58.3968 12.4569C58.5968 12.5369 58.7868 12.6202 58.9668 12.7069C59.1534 12.7869 59.3168 12.8869 59.4568 13.0069C59.5968 13.1202 59.7101 13.2602 59.7968 13.4269C59.8834 13.5869 59.9268 13.7902 59.9268 14.0369C59.9268 14.5036 59.7501 14.8569 59.3968 15.0969C59.0501 15.3369 58.5734 15.4569 57.9668 15.4569C57.5134 15.4569 57.1668 15.4169 56.9268 15.3369C56.6868 15.2636 56.5268 15.2069 56.4468 15.1669L56.6168 14.5769C56.6368 14.5902 56.6801 14.6136 56.7468 14.6469C56.8134 14.6736 56.9034 14.7069 57.0168 14.7469C57.1301 14.7802 57.2634 14.8102 57.4168 14.8369C57.5768 14.8636 57.7601 14.8769 57.9668 14.8769ZM62.3341 14.4069C62.3941 14.4536 62.4674 14.5036 62.5541 14.5569C62.6474 14.6102 62.7541 14.6602 62.8741 14.7069C62.9941 14.7536 63.1241 14.7936 63.2641 14.8269C63.4041 14.8536 63.5508 14.8669 63.7041 14.8669C64.0241 14.8669 64.2908 14.8136 64.5041 14.7069C64.7241 14.5936 64.9008 14.4436 65.0341 14.2569C65.1674 14.0636 65.2641 13.8402 65.3241 13.5869C65.3841 13.3269 65.4141 13.0536 65.4141 12.7669C65.4141 12.0869 65.2441 11.5669 64.9041 11.2069C64.5641 10.8402 64.1141 10.6569 63.5541 10.6569C63.2341 10.6569 62.9741 10.6736 62.7741 10.7069C62.5808 10.7336 62.4341 10.7636 62.3341 10.7969V14.4069ZM62.3341 17.1869H61.6841V10.3469C61.8774 10.2802 62.1241 10.2169 62.4241 10.1569C62.7241 10.0969 63.1041 10.0669 63.5641 10.0669C63.9441 10.0669 64.2874 10.1302 64.5941 10.2569C64.9074 10.3769 65.1741 10.5536 65.3941 10.7869C65.6208 11.0202 65.7941 11.3036 65.9141 11.6369C66.0408 11.9702 66.1041 12.3469 66.1041 12.7669C66.1041 13.1602 66.0508 13.5236 65.9441 13.8569C65.8441 14.1836 65.6941 14.4669 65.4941 14.7069C65.2941 14.9402 65.0474 15.1236 64.7541 15.2569C64.4674 15.3902 64.1374 15.4569 63.7641 15.4569C63.4241 15.4569 63.1274 15.4102 62.8741 15.3169C62.6274 15.2169 62.4474 15.1236 62.3341 15.0369V17.1869ZM72.4242 12.7569C72.4242 13.1636 72.3642 13.5336 72.2442 13.8669C72.1308 14.2002 71.9675 14.4836 71.7542 14.7169C71.5475 14.9502 71.3008 15.1336 71.0142 15.2669C70.7275 15.3936 70.4108 15.4569 70.0642 15.4569C69.7175 15.4569 69.4008 15.3936 69.1142 15.2669C68.8275 15.1336 68.5775 14.9502 68.3642 14.7169C68.1575 14.4836 67.9942 14.2002 67.8742 13.8669C67.7608 13.5336 67.7042 13.1636 67.7042 12.7569C67.7042 12.3502 67.7608 11.9802 67.8742 11.6469C67.9942 11.3136 68.1575 11.0302 68.3642 10.7969C68.5775 10.5569 68.8275 10.3736 69.1142 10.2469C69.4008 10.1136 69.7175 10.0469 70.0642 10.0469C70.4108 10.0469 70.7275 10.1136 71.0142 10.2469C71.3008 10.3736 71.5475 10.5569 71.7542 10.7969C71.9675 11.0302 72.1308 11.3136 72.2442 11.6469C72.3642 11.9802 72.4242 12.3502 72.4242 12.7569ZM71.7342 12.7569C71.7342 12.1102 71.5842 11.5969 71.2842 11.2169C70.9842 10.8302 70.5775 10.6369 70.0642 10.6369C69.5508 10.6369 69.1442 10.8302 68.8442 11.2169C68.5442 11.5969 68.3942 12.1102 68.3942 12.7569C68.3942 13.4036 68.5442 13.9169 68.8442 14.2969C69.1442 14.6769 69.5508 14.8669 70.0642 14.8669C70.5775 14.8669 70.9842 14.6769 71.2842 14.2969C71.5842 13.9169 71.7342 13.4036 71.7342 12.7569ZM74.3345 10.3469C74.5278 10.2936 74.7878 10.2336 75.1145 10.1669C75.4412 10.1002 75.8412 10.0669 76.3145 10.0669C76.7078 10.0669 77.0345 10.1236 77.2945 10.2369C77.5612 10.3502 77.7712 10.5136 77.9245 10.7269C78.0845 10.9336 78.1978 11.1836 78.2645 11.4769C78.3312 11.7702 78.3645 12.0936 78.3645 12.4469V15.3369H77.7145V12.6569C77.7145 12.2902 77.6878 11.9802 77.6345 11.7269C77.5878 11.4736 77.5045 11.2669 77.3845 11.1069C77.2712 10.9469 77.1178 10.8336 76.9245 10.7669C76.7378 10.6936 76.5012 10.6569 76.2145 10.6569C75.9078 10.6569 75.6412 10.6736 75.4145 10.7069C75.1945 10.7402 75.0512 10.7702 74.9845 10.7969V15.3369H74.3345V10.3469ZM81.1778 15.3369H80.5278V10.1669H81.1778V15.3369ZM82.2378 8.11691L80.5278 9.50691L80.1978 9.12691L81.7778 7.60691L82.2378 8.11691ZM84.9609 14.6369C85.1009 14.3502 85.2442 14.0236 85.3909 13.6569C85.5376 13.2836 85.6776 12.9002 85.8109 12.5069C85.9509 12.1069 86.0776 11.7069 86.1909 11.3069C86.3109 10.9002 86.4109 10.5202 86.4909 10.1669H87.1409C87.0209 10.6402 86.8876 11.1069 86.7409 11.5669C86.5942 12.0269 86.4376 12.4769 86.2709 12.9169C86.1109 13.3569 85.9409 13.7802 85.7609 14.1869C85.5876 14.5936 85.4176 14.9769 85.2509 15.3369H84.6309C84.4576 14.9769 84.2842 14.5936 84.1109 14.1869C83.9376 13.7802 83.7676 13.3569 83.6009 12.9169C83.4409 12.4769 83.2876 12.0269 83.1409 11.5669C82.9942 11.1069 82.8609 10.6402 82.7409 10.1669H83.4309C83.5109 10.5202 83.6076 10.9002 83.7209 11.3069C83.8409 11.7069 83.9676 12.1069 84.1009 12.5069C84.2409 12.9002 84.3842 13.2836 84.5309 13.6569C84.6776 14.0236 84.8209 14.3502 84.9609 14.6369ZM88.3956 12.7469C88.3956 12.2936 88.4589 11.9002 88.5856 11.5669C88.7189 11.2269 88.8889 10.9436 89.0956 10.7169C89.3089 10.4902 89.5489 10.3236 89.8156 10.2169C90.0889 10.1036 90.3689 10.0469 90.6556 10.0469C91.2889 10.0469 91.7922 10.2536 92.1656 10.6669C92.5456 11.0802 92.7356 11.7169 92.7356 12.5769C92.7356 12.6302 92.7322 12.6836 92.7256 12.7369C92.7256 12.7902 92.7222 12.8402 92.7156 12.8869H89.0856C89.1056 13.5202 89.2622 14.0069 89.5556 14.3469C89.8489 14.6869 90.3156 14.8569 90.9556 14.8569C91.3089 14.8569 91.5889 14.8236 91.7956 14.7569C92.0022 14.6902 92.1522 14.6336 92.2456 14.5869L92.3656 15.1469C92.2722 15.2002 92.0956 15.2636 91.8356 15.3369C91.5822 15.4102 91.2822 15.4469 90.9356 15.4469C90.4822 15.4469 90.0956 15.3802 89.7756 15.2469C89.4556 15.1136 89.1922 14.9269 88.9856 14.6869C88.7789 14.4469 88.6289 14.1636 88.5356 13.8369C88.4422 13.5036 88.3956 13.1402 88.3956 12.7469ZM92.0656 12.3369C92.0522 11.7969 91.9256 11.3769 91.6856 11.0769C91.4456 10.7769 91.1056 10.6269 90.6656 10.6269C90.4322 10.6269 90.2222 10.6736 90.0356 10.7669C89.8556 10.8602 89.6956 10.9869 89.5556 11.1469C89.4222 11.3002 89.3156 11.4802 89.2356 11.6869C89.1622 11.8936 89.1189 12.1102 89.1056 12.3369H92.0656ZM95.9941 15.4269C95.7741 15.4202 95.5808 15.3902 95.4141 15.3369C95.2541 15.2902 95.1174 15.2169 95.0041 15.1169C94.8974 15.0102 94.8141 14.8769 94.7541 14.7169C94.7008 14.5502 94.6741 14.3436 94.6741 14.0969V7.69691L95.3241 7.57691V14.0769C95.3241 14.2369 95.3374 14.3669 95.3641 14.4669C95.3974 14.5602 95.4441 14.6369 95.5041 14.6969C95.5641 14.7502 95.6408 14.7902 95.7341 14.8169C95.8341 14.8436 95.9508 14.8669 96.0841 14.8869L95.9941 15.4269ZM100.508 10.3469C100.702 10.2936 100.962 10.2336 101.288 10.1669C101.615 10.1002 102.015 10.0669 102.488 10.0669C102.882 10.0669 103.208 10.1236 103.468 10.2369C103.735 10.3502 103.945 10.5136 104.098 10.7269C104.258 10.9336 104.372 11.1836 104.438 11.4769C104.505 11.7702 104.538 12.0936 104.538 12.4469V15.3369H103.888V12.6569C103.888 12.2902 103.862 11.9802 103.808 11.7269C103.762 11.4736 103.678 11.2669 103.558 11.1069C103.445 10.9469 103.292 10.8336 103.098 10.7669C102.912 10.6936 102.675 10.6569 102.388 10.6569C102.082 10.6569 101.815 10.6736 101.588 10.7069C101.368 10.7402 101.225 10.7702 101.158 10.7969V15.3369H100.508V10.3469ZM111.112 12.7569C111.112 13.1636 111.052 13.5336 110.932 13.8669C110.818 14.2002 110.655 14.4836 110.442 14.7169C110.235 14.9502 109.988 15.1336 109.702 15.2669C109.415 15.3936 109.098 15.4569 108.752 15.4569C108.405 15.4569 108.088 15.3936 107.802 15.2669C107.515 15.1336 107.265 14.9502 107.052 14.7169C106.845 14.4836 106.682 14.2002 106.562 13.8669C106.448 13.5336 106.392 13.1636 106.392 12.7569C106.392 12.3502 106.448 11.9802 106.562 11.6469C106.682 11.3136 106.845 11.0302 107.052 10.7969C107.265 10.5569 107.515 10.3736 107.802 10.2469C108.088 10.1136 108.405 10.0469 108.752 10.0469C109.098 10.0469 109.415 10.1136 109.702 10.2469C109.988 10.3736 110.235 10.5569 110.442 10.7969C110.655 11.0302 110.818 11.3136 110.932 11.6469C111.052 11.9802 111.112 12.3502 111.112 12.7569ZM110.422 12.7569C110.422 12.1102 110.272 11.5969 109.972 11.2169C109.672 10.8302 109.265 10.6369 108.752 10.6369C108.238 10.6369 107.832 10.8302 107.532 11.2169C107.232 11.5969 107.082 12.1102 107.082 12.7569C107.082 13.4036 107.232 13.9169 107.532 14.2969C107.832 14.6769 108.238 14.8669 108.752 14.8669C109.265 14.8669 109.672 14.6769 109.972 14.2969C110.272 13.9169 110.422 13.4036 110.422 12.7569Z" fill="#2D2D2D"/>
</svg>
