<svg width="146" height="32" viewBox="0 0 146 32" fill="none" xmlns="http://www.w3.org/2000/svg">
<path d="M73.2331 11.0952C70.2759 11.0952 67.86 13.2433 67.86 16.207C67.86 19.1467 70.2759 21.3172 73.2331 21.3172C76.1967 21.3172 78.6126 19.1467 78.6126 16.207C78.6126 13.2433 76.1967 11.0952 73.2331 11.0952ZM73.2331 19.3044C71.6105 19.3044 70.2145 18.0261 70.2145 16.207C70.2145 14.3639 71.6105 13.1081 73.2331 13.1081C74.8558 13.1081 76.2581 14.3639 76.2581 16.207C76.2581 18.0261 74.8558 19.3044 73.2331 19.3044ZM61.5095 11.0952C58.5459 11.0952 56.1363 13.2433 56.1363 16.207C56.1363 19.1467 58.5459 21.3172 61.5095 21.3172C64.4715 21.3172 66.8826 19.1467 66.8826 16.207C66.8826 13.2433 64.4715 11.0952 61.5095 11.0952ZM61.5095 19.3044C59.8853 19.3044 58.4845 18.0261 58.4845 16.207C58.4845 14.3639 59.8853 13.1081 61.5095 13.1081C63.1321 13.1081 64.5281 14.3639 64.5281 16.207C64.5281 18.0261 63.1321 19.3044 61.5095 19.3044ZM47.5588 12.662V14.834H52.9933C52.8344 16.0478 52.4094 16.94 51.7579 17.5619C50.9646 18.313 49.7292 19.1467 47.5588 19.1467C44.2144 19.1467 41.5955 16.5705 41.5955 13.3785C41.5955 10.1865 44.2144 7.6103 47.5588 7.6103C49.3672 7.6103 50.6829 8.28476 51.654 9.159L53.2578 7.62833C51.8995 6.39057 50.0927 5.43972 47.5588 5.43972C42.9726 5.43972 39.1182 9.00128 39.1182 13.3785C39.1182 17.7557 42.9726 21.3172 47.5588 21.3172C50.0376 21.3172 51.8995 20.5421 53.3632 19.0881C54.8631 17.6565 55.3305 15.6437 55.3305 14.0184C55.3305 13.5137 55.2864 13.0495 55.2078 12.662H47.5588ZM104.605 14.3459C104.163 13.2027 102.798 11.0952 100.019 11.0952C97.2643 11.0952 94.9712 13.1667 94.9712 16.207C94.9712 19.0701 97.2407 21.3172 100.283 21.3172C102.743 21.3172 104.163 19.8857 104.746 19.052L102.921 17.8909C102.312 18.7411 101.482 19.3044 100.283 19.3044C99.0916 19.3044 98.237 18.7831 97.6893 17.7557L104.852 14.9272L104.605 14.3459ZM97.3021 16.0478C97.2407 14.077 98.9059 13.0675 100.099 13.0675C101.034 13.0675 101.827 13.5137 102.091 14.1521L97.3021 16.0478ZM91.4804 21.0063H93.8349V5.985H91.4804V21.0063ZM87.6245 12.2339H87.5458C87.017 11.636 86.0081 11.0952 84.7302 11.0952C82.0483 11.0952 79.5962 13.3424 79.5962 16.2235C79.5962 19.0881 82.0483 21.3172 84.7302 21.3172C86.0081 21.3172 87.017 20.772 87.5458 20.1561H87.6245V20.8891C87.6245 22.8434 86.5306 23.8934 84.7663 23.8934C83.3278 23.8934 82.4355 22.902 82.0672 22.0683L80.0196 22.884C80.6098 24.2389 82.1726 25.9062 84.7663 25.9062C87.5269 25.9062 89.8562 24.3561 89.8562 20.5842V11.4062H87.6245V12.2339ZM84.9316 19.3044C83.309 19.3044 81.9507 18.008 81.9507 16.2235C81.9507 14.4225 83.309 13.1081 84.9316 13.1081C86.5306 13.1081 87.7913 14.4225 87.7913 16.2235C87.7913 18.008 86.5306 19.3044 84.9316 19.3044ZM115.628 5.985H109.997V21.0063H112.345V15.3147H115.628C118.236 15.3147 120.793 13.5137 120.793 10.6491C120.793 7.78605 118.23 5.985 115.628 5.985ZM115.689 13.2253H112.345V8.07446H115.689C117.443 8.07446 118.444 9.46393 118.444 10.6491C118.444 11.8118 117.443 13.2253 115.689 13.2253ZM130.205 11.0667C128.509 11.0667 126.744 11.7817 126.019 13.3665L128.102 14.2001C128.551 13.3665 129.376 13.0961 130.248 13.0961C131.466 13.0961 132.701 13.7946 132.72 15.0278V15.1855C132.295 14.9512 131.386 14.6042 130.267 14.6042C128.022 14.6042 125.735 15.7834 125.735 17.984C125.735 19.9969 127.574 21.2932 129.64 21.2932C131.22 21.2932 132.092 20.6127 132.64 19.8211H132.72V20.9823H134.988V15.2201C134.988 12.5568 132.904 11.0667 130.205 11.0667ZM129.922 19.2984C129.154 19.2984 128.084 18.9349 128.084 18.0261C128.084 16.8634 129.418 16.4173 130.573 16.4173C131.607 16.4173 132.092 16.6351 132.72 16.922C132.536 18.313 131.282 19.2984 129.922 19.2984ZM143.251 11.3957L140.552 17.9074H140.471L137.681 11.3957H135.149L139.341 20.4956L136.949 25.5593H139.403L145.863 11.3957H143.251ZM122.084 21.0063H124.439V5.985H122.084V21.0063Z" fill="white"/>
<path d="M15.5605 15.6L0.763495 1.483C0.67965 1.69754 0.626495 1.9719 0.626495 2.31515V28.8909C0.626495 29.2318 0.678931 29.5047 0.761791 29.7186L15.5605 15.6Z" stroke="white"/>
<path d="M21.582 11.2222L27.4547 14.4114L27.456 14.4121C28.2257 14.8278 28.4484 15.2851 28.4484 15.5999C28.4484 15.9154 28.2251 16.3742 27.4552 16.7928L21.582 11.2222ZM21.582 11.2222L16.9959 15.5994L21.5785 19.9784L27.4546 16.7931L21.582 11.2222Z" stroke="white"/>
<mask id="path-4-inside-1_61_317" fill="white">
<path d="M21.5964 20.6753L16.2784 15.5996L0.583862 30.5804C1.16776 31.1662 2.11995 31.2368 3.20276 30.651L21.5964 20.6753Z"/>
</mask>
<path d="M16.2784 15.5996L15.4079 14.7088L16.2783 13.878L17.1488 14.7088L16.2784 15.5996ZM0.583862 30.5804L-0.308757 31.4495L-1.19685 30.5584L-0.286571 29.6896L0.583862 30.5804ZM3.20276 30.651L3.80553 31.7367L3.8044 31.7373L3.20276 30.651ZM20.726 21.5662L15.408 16.4905L17.1488 14.7088L22.4668 19.7845L20.726 21.5662ZM17.1488 16.4904L1.4543 31.4712L-0.286571 29.6896L15.4079 14.7088L17.1488 16.4904ZM1.47648 29.7113C1.53124 29.7662 1.6076 29.8117 1.75631 29.8176C1.92303 29.8242 2.20722 29.7778 2.60112 29.5647L3.8044 31.7373C2.4384 32.4763 0.81274 32.5747 -0.308757 31.4495L1.47648 29.7113ZM2.6 29.5653L20.9937 19.5896L22.1992 21.761L3.80553 31.7367L2.6 29.5653Z" fill="white" mask="url(#path-4-inside-1_61_317)"/>
<path d="M16.2784 14.7382L20.5495 10.6617L2.90438 1.09203C2.90393 1.09178 2.90347 1.09154 2.90301 1.09129C2.38674 0.815099 1.96835 0.736855 1.64372 0.774725L16.2784 14.7382Z" stroke="white"/>
</svg>
