<svg width="184" height="56" viewBox="0 0 184 56" fill="none" xmlns="http://www.w3.org/2000/svg">
<path d="M177.185 1.1218C180.34 1.1218 182.908 3.75905 182.908 7.00005V49C182.908 52.241 180.34 54.8783 177.185 54.8783H6.81481C3.65956 54.8783 1.09207 52.241 1.09207 49V7.00005C1.09207 3.75905 3.65956 1.1218 6.81481 1.1218H177.185ZM177.185 5.49254e-05H6.81481C3.06837 5.49254e-05 0 3.1518 0 7.00005V49C0 52.8483 3.06837 56 6.81481 56H177.185C180.932 56 184 52.8483 184 49V7.00005C184 3.1518 180.932 5.49254e-05 177.185 5.49254e-05Z" fill="white"/>
<path d="M64.6284 14.3413C64.6284 15.5103 64.2876 16.4465 63.6164 17.1448C62.8446 17.9725 61.8394 18.389 60.6076 18.389C59.4303 18.389 58.4251 17.9655 57.6005 17.1308C56.7742 16.2838 56.3619 15.2443 56.3619 14.0001C56.3619 12.7558 56.7742 11.7163 57.6005 10.8763C58.4251 10.0346 59.4303 9.61108 60.6076 9.61108C61.1937 9.61108 61.7525 9.73533 62.2857 9.96633C62.8173 10.1991 63.2501 10.5141 63.5635 10.9026L62.8514 11.6411C62.3045 10.9778 61.56 10.6506 60.6076 10.6506C59.7489 10.6506 59.0044 10.9586 58.3723 11.5798C57.7471 12.2028 57.4336 13.0096 57.4336 14.0001C57.4336 14.9906 57.7471 15.8043 58.3723 16.4273C59.0044 17.0415 59.7489 17.3565 60.6076 17.3565C61.5191 17.3565 62.2858 17.0415 62.8906 16.4203C63.2892 16.009 63.5158 15.4421 63.5755 14.7176H60.6076V13.7061H64.567C64.6147 13.9248 64.6284 14.1366 64.6284 14.3413Z" fill="white" stroke="white" stroke-width="0.16" stroke-miterlimit="10"/>
<path d="M70.9098 10.8342H67.1906V13.4942H70.5435V14.5057H67.1906V17.1657H70.9098V18.1964H66.1378V9.80347H70.9098V10.8342Z" fill="white" stroke="white" stroke-width="0.16" stroke-miterlimit="10"/>
<path d="M75.3429 18.1964H74.29V10.8342H72.0087V9.80347H77.6259V10.8342H75.3429V18.1964Z" fill="white" stroke="white" stroke-width="0.16" stroke-miterlimit="10"/>
<path d="M81.6909 18.1964V9.80347H82.7421V18.1964H81.6909Z" fill="white" stroke="white" stroke-width="0.16" stroke-miterlimit="10"/>
<path d="M87.4017 18.1964H86.3573V10.8342H84.0676V9.80347H89.6915V10.8342H87.4017V18.1964Z" fill="white" stroke="white" stroke-width="0.16" stroke-miterlimit="10"/>
<path d="M100.326 17.1168C99.5201 17.9655 98.5218 18.389 97.3309 18.389C96.1332 18.389 95.1348 17.9655 94.329 17.1168C93.5248 16.2698 93.1245 15.2303 93.1245 14.0001C93.1245 12.7698 93.5248 11.7303 94.329 10.8833C95.1348 10.0346 96.1332 9.61108 97.3309 9.61108C98.515 9.61108 99.5133 10.0346 100.319 10.8903C101.13 11.7443 101.531 12.7768 101.531 14.0001C101.531 15.2303 101.13 16.2698 100.326 17.1168ZM95.1076 16.4133C95.7141 17.0415 96.4518 17.3565 97.3309 17.3565C98.2032 17.3565 98.9477 17.0415 99.5474 16.4133C100.152 15.785 100.459 14.9783 100.459 14.0001C100.459 13.0218 100.152 12.2151 99.5474 11.5868C98.9477 10.9586 98.2032 10.6436 97.3309 10.6436C96.4518 10.6436 95.7141 10.9586 95.1076 11.5868C94.5027 12.2151 94.1961 13.0218 94.1961 14.0001C94.1961 14.9783 94.5027 15.785 95.1076 16.4133Z" fill="white" stroke="white" stroke-width="0.16" stroke-miterlimit="10"/>
<path d="M103.008 18.1964V9.80347H104.285L108.258 16.3309H108.304L108.258 14.7175V9.80347H109.31V18.1964H108.212L104.052 11.347H104.006L104.052 12.9675V18.1964H103.008Z" fill="white" stroke="white" stroke-width="0.16" stroke-miterlimit="10"/>
<path d="M92.8655 30.4536C89.6642 30.4536 87.0491 32.956 87.0491 36.4088C87.0491 39.8335 89.6642 42.3623 92.8655 42.3623C96.0736 42.3623 98.6888 39.8335 98.6888 36.4088C98.6888 32.956 96.0736 30.4536 92.8655 30.4536ZM92.8655 40.0173C91.109 40.0173 89.5978 38.528 89.5978 36.4088C89.5978 34.2615 91.109 32.7986 92.8655 32.7986C94.622 32.7986 96.14 34.2615 96.14 36.4088C96.14 38.528 94.622 40.0173 92.8655 40.0173ZM80.1746 30.4536C76.9665 30.4536 74.3582 32.956 74.3582 36.4088C74.3582 39.8335 76.9665 42.3623 80.1746 42.3623C83.381 42.3623 85.9911 39.8335 85.9911 36.4088C85.9911 32.956 83.381 30.4536 80.1746 30.4536ZM80.1746 40.0173C78.4164 40.0173 76.9001 38.528 76.9001 36.4088C76.9001 34.2615 78.4164 32.7986 80.1746 32.7986C81.9311 32.7986 83.4423 34.2615 83.4423 36.4088C83.4423 38.528 81.9311 40.0173 80.1746 40.0173ZM65.073 32.2788V34.8093H70.9559C70.7838 36.2233 70.3238 37.2628 69.6185 37.9873C68.7598 38.8623 67.4224 39.8335 65.073 39.8335C61.4526 39.8335 58.6177 36.8323 58.6177 33.1136C58.6177 29.3948 61.4526 26.3936 65.073 26.3936C67.0305 26.3936 68.4548 27.1793 69.506 28.1978L71.2421 26.4146C69.7718 24.9726 67.816 23.8648 65.073 23.8648C60.1084 23.8648 55.936 28.0141 55.936 33.1136C55.936 38.213 60.1084 42.3623 65.073 42.3623C67.7563 42.3623 69.7718 41.4593 71.3562 39.7653C72.9799 38.0975 73.4859 35.7525 73.4859 33.859C73.4859 33.271 73.4382 32.7303 73.353 32.2788H65.073ZM126.825 34.2405C126.347 32.9088 124.87 30.4536 121.861 30.4536C118.879 30.4536 116.397 32.8668 116.397 36.4088C116.397 39.7443 118.854 42.3623 122.147 42.3623C124.81 42.3623 126.347 40.6945 126.979 39.7233L125.002 38.3705C124.343 39.361 123.445 40.0173 122.147 40.0173C120.857 40.0173 119.932 39.41 119.339 38.213L127.093 34.9178L126.825 34.2405ZM118.92 36.2233C118.854 33.9273 120.656 32.7513 121.948 32.7513C122.96 32.7513 123.818 33.271 124.105 34.0148L118.92 36.2233ZM112.618 42H115.167V24.5001H112.618V42ZM108.444 31.7801H108.359C107.787 31.0836 106.694 30.4536 105.311 30.4536C102.408 30.4536 99.7536 33.0715 99.7536 36.428C99.7536 39.7653 102.408 42.3623 105.311 42.3623C106.694 42.3623 107.787 41.727 108.359 41.0095H108.444V41.8635C108.444 44.1403 107.26 45.3635 105.35 45.3635C103.793 45.3635 102.827 44.2085 102.428 43.2373L100.212 44.1875C100.851 45.766 102.543 47.7085 105.35 47.7085C108.339 47.7085 110.86 45.9025 110.86 41.5083V30.8158H108.444V31.7801ZM105.529 40.0173C103.773 40.0173 102.302 38.507 102.302 36.428C102.302 34.3298 103.773 32.7986 105.529 32.7986C107.26 32.7986 108.625 34.3298 108.625 36.428C108.625 38.507 107.26 40.0173 105.529 40.0173ZM138.758 24.5001H132.662V42H135.204V35.3693H138.758C141.581 35.3693 144.35 33.271 144.35 29.9338C144.35 26.5983 141.574 24.5001 138.758 24.5001ZM138.825 32.935H135.204V26.9343H138.825C140.723 26.9343 141.806 28.5531 141.806 29.9338C141.806 31.2883 140.723 32.935 138.825 32.935ZM154.538 30.4203C152.701 30.4203 150.791 31.2533 150.006 33.0995L152.262 34.0708C152.747 33.0995 153.64 32.7845 154.584 32.7845C155.903 32.7845 157.24 33.5983 157.26 35.035V35.2188C156.8 34.9458 155.816 34.5415 154.604 34.5415C152.175 34.5415 149.699 35.9153 149.699 38.479C149.699 40.824 151.689 42.3343 153.926 42.3343C155.637 42.3343 156.581 41.5415 157.173 40.6193H157.26V41.972H159.715V35.259C159.715 32.1563 157.46 30.4203 154.538 30.4203ZM154.231 40.0103C153.4 40.0103 152.241 39.5868 152.241 38.528C152.241 37.1735 153.686 36.6538 154.937 36.6538C156.056 36.6538 156.581 36.9075 157.26 37.2418C157.061 38.8623 155.703 40.0103 154.231 40.0103ZM168.66 30.8036L165.738 38.3898H165.651L162.63 30.8036H159.889L164.428 41.405L161.838 47.3042H164.494L171.488 30.8036H168.66ZM145.747 42H148.295V24.5001H145.747V42Z" fill="white"/>
<path d="M14.2169 43.4839C14.2169 43.9368 14.2884 44.2965 14.4004 44.5731L30.5417 27.9999L14.4024 11.4289C14.2892 11.706 14.2169 12.0673 14.2169 12.523V43.4839Z" stroke="white"/>
<path d="M36.9493 22.7951L31.8817 28.0004L36.9454 33.208L43.3178 29.4904C43.3179 29.4903 43.318 29.4903 43.3181 29.4902C44.1503 29.0034 44.4377 28.4434 44.4377 28.0012C44.4377 27.5594 44.1509 27.0013 43.3193 26.518L43.318 26.5173L36.9493 22.7951Z" stroke="white"/>
<mask id="path-12-inside-1_26_316" fill="white">
<path d="M36.9687 33.9132L31.2119 28L14.2225 45.4527C14.8546 46.1352 15.8853 46.2175 17.0575 45.535L36.9687 33.9132Z"/>
</mask>
<path d="M31.2119 28L30.3089 27.1414L31.2118 26.2139L32.1148 27.1413L31.2119 28ZM14.2225 45.4527L13.2983 46.2889L12.5043 45.4316L13.3196 44.5941L14.2225 45.4527ZM17.0575 45.535L17.6946 46.6013L17.6935 46.602L17.0575 45.535ZM36.0658 34.7719L30.309 28.8587L32.1148 27.1413L37.8716 33.0546L36.0658 34.7719ZM32.1148 28.8586L15.1255 46.3113L13.3196 44.5941L30.3089 27.1414L32.1148 28.8586ZM15.1468 44.6165C15.2336 44.7103 15.3339 44.7617 15.4914 44.7684C15.6725 44.7762 15.9849 44.7221 16.4215 44.4679L17.6935 46.602C16.2193 47.4603 14.473 47.5573 13.2983 46.2889L15.1468 44.6165ZM16.4204 44.4686L36.3315 32.8469L37.6058 34.9796L17.6946 46.6013L16.4204 44.4686Z" fill="white" mask="url(#path-12-inside-1_26_316)"/>
<path d="M15.1967 10.6618L31.2118 27.107L35.9679 22.2218L16.7419 11.0001C16.7415 10.9998 16.741 10.9995 16.7406 10.9993C16.0864 10.6226 15.5749 10.5575 15.1967 10.6618Z" stroke="white"/>
</svg>
