<svg width="83" height="81" viewBox="0 0 83 81" fill="none" xmlns="http://www.w3.org/2000/svg">
<path d="M42.71 0H40.29C18.0384 0 0 18.0384 0 40.29C0 62.5416 18.0384 80.58 40.29 80.58H42.71C64.9615 80.58 83 62.5416 83 40.29C83 18.0384 64.9615 0 42.71 0Z" fill="#2DC6EA"/>
<path d="M13.7201 52.34V28.25H20.4256V52.34H13.7201Z" fill="white"/>
<path d="M32.7138 33.9999C36.3257 33.9999 39.0725 34.7766 40.954 36.33C42.8355 37.8833 43.7832 40.1399 43.7969 43.0999V45.01H28.2228C28.208 45.4004 28.3113 45.7865 28.52 46.1207C28.7287 46.4548 29.0336 46.7222 29.3971 46.8899C30.4318 47.3626 31.5722 47.5757 32.7138 47.51C33.3589 47.5213 34.0037 47.4745 34.6399 47.37C35.0872 47.3007 35.528 47.197 35.9584 47.0599C36.2332 46.9834 36.4939 46.8653 36.7309 46.7099C36.8397 46.6404 36.9312 46.5482 36.9987 46.44H43.6733C43.4215 47.364 42.971 48.2258 42.3514 48.9687C41.7318 49.7116 40.9571 50.3186 40.0785 50.75C37.7981 51.863 35.2642 52.3963 32.7138 52.3C31.1374 52.3196 29.5663 52.1209 28.0477 51.7099C26.775 51.3713 25.5845 50.79 24.5456 50C23.5813 49.2374 22.8215 48.2596 22.331 47.15C21.3014 44.6115 21.3014 41.7884 22.331 39.2499C22.8183 38.1329 23.5783 37.1479 24.5456 36.3799C25.5823 35.5741 26.7775 34.982 28.058 34.6399C29.5696 34.208 31.138 33.9924 32.7138 33.9999ZM32.7138 38.79C31.5264 38.6992 30.3355 38.9166 29.2631 39.4199C28.9743 39.5591 28.7275 39.7686 28.547 40.028C28.3665 40.2874 28.2583 40.5878 28.2331 40.9V41.1799H37.1532V40.8799C37.1317 40.5694 37.0248 40.2701 36.8436 40.0133C36.6625 39.7565 36.4137 39.5516 36.1232 39.4199C35.0607 38.9332 33.884 38.7296 32.7138 38.83V38.79Z" fill="white"/>
<path d="M55.9617 34.72C57.8048 34.72 59.299 33.2694 59.299 31.48C59.299 29.6906 57.8048 28.24 55.9617 28.24C54.1185 28.24 52.6244 29.6906 52.6244 31.48C52.6244 33.2694 54.1185 34.72 55.9617 34.72Z" fill="#FF8F29"/>
<path d="M61.7505 34.05L55.9617 46.51L50.1729 34.05H42.6537L52.3875 52.34H55.9411H55.9926H59.5359L69.2698 34.05H61.7505Z" fill="white"/>
</svg>
