<svg width="28" height="29" viewBox="0 0 28 29" fill="none" xmlns="http://www.w3.org/2000/svg">
<path d="M14 2.61113C17.7406 2.61113 18.1836 2.62812 19.6547 2.69609C21.0219 2.7584 21.7602 2.99629 22.2523 3.19453C22.9031 3.45508 23.3734 3.77227 23.8602 4.27637C24.3523 4.78613 24.6531 5.26758 24.9047 5.9416C25.0961 6.45137 25.3258 7.22168 25.3859 8.63203C25.4516 10.1613 25.468 10.6201 25.468 14.4887C25.468 18.3629 25.4516 18.8217 25.3859 20.3453C25.3258 21.7613 25.0961 22.526 24.9047 23.0357C24.6531 23.7098 24.3469 24.1969 23.8602 24.701C23.368 25.2107 22.9031 25.5223 22.2523 25.7828C21.7602 25.9811 21.0164 26.2189 19.6547 26.2812C18.1781 26.3492 17.7352 26.3662 14 26.3662C10.2594 26.3662 9.81641 26.3492 8.34531 26.2812C6.97813 26.2189 6.23984 25.9811 5.74766 25.7828C5.09688 25.5223 4.62656 25.2051 4.13984 24.701C3.64766 24.1912 3.34688 23.7098 3.09531 23.0357C2.90391 22.526 2.67422 21.7557 2.61406 20.3453C2.54844 18.816 2.53203 18.3572 2.53203 14.4887C2.53203 10.6145 2.54844 10.1557 2.61406 8.63203C2.67422 7.21602 2.90391 6.45137 3.09531 5.9416C3.34688 5.26758 3.65313 4.78047 4.13984 4.27637C4.63203 3.7666 5.09688 3.45508 5.74766 3.19453C6.23984 2.99629 6.98359 2.7584 8.34531 2.69609C9.81641 2.62812 10.2594 2.61113 14 2.61113ZM14 0C10.1992 0 9.72344 0.0169922 8.23047 0.0849609C6.74297 0.15293 5.72031 0.402148 4.83438 0.758984C3.91016 1.13281 3.12813 1.62559 2.35156 2.43555C1.56953 3.23984 1.09375 4.04981 0.732813 5.00137C0.388281 5.92461 0.147656 6.97812 0.0820313 8.51875C0.0164063 10.0707 0 10.5635 0 14.5C0 18.4365 0.0164063 18.9293 0.0820313 20.4756C0.147656 22.0162 0.388281 23.0754 0.732813 23.993C1.09375 24.9502 1.56953 25.7602 2.35156 26.5645C3.12813 27.3688 3.91016 27.8672 4.82891 28.2354C5.72031 28.5922 6.7375 28.8414 8.225 28.9094C9.71797 28.9773 10.1938 28.9943 13.9945 28.9943C17.7953 28.9943 18.2711 28.9773 19.7641 28.9094C21.2516 28.8414 22.2742 28.5922 23.1602 28.2354C24.0789 27.8672 24.8609 27.3688 25.6375 26.5645C26.4141 25.7602 26.8953 24.9502 27.2508 23.9986C27.5953 23.0754 27.8359 22.0219 27.9016 20.4813C27.9672 18.935 27.9836 18.4422 27.9836 14.5057C27.9836 10.5691 27.9672 10.0764 27.9016 8.53008C27.8359 6.98945 27.5953 5.93027 27.2508 5.0127C26.9063 4.0498 26.4305 3.23984 25.6484 2.43555C24.8719 1.63125 24.0898 1.13281 23.1711 0.764648C22.2797 0.407812 21.2625 0.158594 19.775 0.090625C18.2766 0.0169922 17.8008 0 14 0Z" fill="white"/>
<path d="M14 7.05176C10.0297 7.05176 6.80859 10.3879 6.80859 14.5C6.80859 18.6121 10.0297 21.9482 14 21.9482C17.9703 21.9482 21.1914 18.6121 21.1914 14.5C21.1914 10.3879 17.9703 7.05176 14 7.05176ZM14 19.3314C11.4242 19.3314 9.33516 17.1678 9.33516 14.5C9.33516 11.8322 11.4242 9.66855 14 9.66855C16.5758 9.66855 18.6648 11.8322 18.6648 14.5C18.6648 17.1678 16.5758 19.3314 14 19.3314Z" fill="white"/>
<path d="M23.1547 6.75718C23.1547 7.72007 22.4 8.49605 21.4758 8.49605C20.5461 8.49605 19.7969 7.71441 19.7969 6.75718C19.7969 5.79429 20.5516 5.01831 21.4758 5.01831C22.4 5.01831 23.1547 5.79995 23.1547 6.75718Z" fill="white"/>
</svg>
