<svg width="82" height="37" viewBox="0 0 82 37" fill="none" xmlns="http://www.w3.org/2000/svg">
<path d="M0 37V0H9.84196V37H0Z" fill="white"/>
<path d="M28.0309 8.91041C33.3604 8.91041 37.4261 10.0976 40.228 12.4721C43.03 14.8465 44.4277 18.3116 44.4211 22.8674V25.8053H21.3969C21.3865 26.4051 21.5435 26.9957 21.85 27.5096C22.1564 28.0234 22.5998 28.4398 23.1296 28.7111C24.2569 29.348 25.8907 29.6656 28.0309 29.664C28.9839 29.6772 29.9361 29.6043 30.8762 29.4462C31.5399 29.334 32.195 29.1752 32.8367 28.971C33.2398 28.852 33.6218 28.6699 33.969 28.4314C34.1335 28.3272 34.2726 28.1867 34.3758 28.0205H44.2202C43.5062 30.8438 41.7368 33.0482 38.912 34.6339C36.0872 36.2196 32.4642 37.0117 28.0432 37.01C25.715 37.0424 23.3943 36.7373 21.1519 36.1041C19.2603 35.5686 17.4949 34.6536 15.9613 33.4137C14.5385 32.2366 13.4165 30.7317 12.6896 29.0254C11.9315 27.2829 11.5533 25.2592 11.555 22.954C11.5157 20.8794 11.9021 18.819 12.6896 16.9024C13.4122 15.1881 14.5347 13.6757 15.9613 12.4943C17.4921 11.2594 19.2531 10.3479 21.1396 9.81381C23.3821 9.18145 25.7029 8.87722 28.0309 8.91041ZM28.0309 16.2589C25.6342 16.2589 23.9367 16.5799 22.9384 17.2217C21.9402 17.8636 21.4263 18.6251 21.3969 19.5062V19.9319H34.5792V19.4592C34.5792 18.6045 34.0727 17.857 33.0597 17.2168C32.0468 16.5766 30.3705 16.2556 28.0309 16.254V16.2589Z" fill="white"/>
<path d="M62.3602 9.93993C65.078 9.93993 67.2812 7.7148 67.2812 4.96996C67.2812 2.22513 65.078 0 62.3602 0C59.6424 0 57.4392 2.22513 57.4392 4.96996C57.4392 7.7148 59.6424 9.93993 62.3602 9.93993Z" fill="white"/>
<path d="M70.8984 8.90527L62.3553 28.0525L53.8122 8.90527H42.7106L57.074 36.9999H62.3161H62.3945H67.6365L82 8.90527H70.8984Z" fill="white"/>
</svg>
