<svg width="190" height="34" viewBox="0 0 190 34" fill="none" xmlns="http://www.w3.org/2000/svg">
<g clip-path="url(#clip0_317_700)">
<path d="M0 27.4048V0H7.35921V27.4048H0Z" fill="white"/>
<path d="M20.9541 6.60105C24.9432 6.60105 27.9828 7.4812 30.0726 9.24151C32.1625 11.0018 33.2074 13.5663 33.2074 16.9349V19.1133H15.994C15.9881 19.5561 16.1064 19.9917 16.3354 20.3707C16.5644 20.7497 16.8949 21.057 17.2895 21.2576C18.1318 21.7284 19.3527 21.9631 20.9521 21.9618C21.6651 21.9708 22.3776 21.9173 23.0813 21.8017C23.5738 21.7173 24.0601 21.5997 24.5367 21.4497C24.8383 21.3611 25.1243 21.2261 25.3844 21.0496C25.5068 20.9718 25.6106 20.868 25.6883 20.7455H33.0455C32.5124 22.8352 31.1902 24.4675 29.079 25.6424C26.9678 26.8173 24.2595 27.4047 20.9541 27.4047C19.2141 27.4288 17.4797 27.2024 15.804 26.7326C14.3933 26.3391 13.0767 25.6641 11.9335 24.7483C10.869 23.8776 10.0297 22.7634 9.48643 21.4997C8.8954 20.0757 8.60673 18.5444 8.63875 17.0029C8.6097 15.4668 8.8983 13.9413 9.48643 12.5221C10.0256 11.2504 10.8654 10.1288 11.9335 9.25351C13.0772 8.3384 14.3936 7.66349 15.804 7.26916C17.4799 6.80071 19.2143 6.5757 20.9541 6.60105ZM20.9541 12.042C19.1628 12.042 17.8966 12.2794 17.1555 12.7541C16.4145 13.2289 16.0273 13.7916 15.994 14.4424V14.7585H25.8502V14.4024C25.8502 13.7703 25.4717 13.2169 24.7147 12.7421C23.9576 12.2674 22.7041 12.0327 20.9541 12.038V12.042Z" fill="white"/>
<path d="M101.562 27.4049V14.3386C101.573 14.0299 101.522 13.7222 101.412 13.4336C101.302 13.145 101.135 12.8813 100.922 12.6583C100.498 12.2208 99.8382 12.0021 98.9425 12.0021C98.0095 12.0021 97.3218 12.2315 96.8793 12.6903C96.6666 12.908 96.4991 13.1658 96.3865 13.4487C96.274 13.7317 96.2186 14.0341 96.2235 14.3386V27.4049H88.8663V14.3386C88.8774 14.0299 88.8264 13.7222 88.7165 13.4336C88.6066 13.145 88.44 12.8813 88.2266 12.6583C87.7987 12.2208 87.137 12.0021 86.2413 12.0021C85.3457 12.0021 84.6793 12.2102 84.2421 12.6262C83.8049 13.0423 83.565 13.6344 83.5224 14.4026V27.4049H76.1711V7.36332H81.0313L81.9549 9.60172C82.6533 8.61652 83.6034 7.83721 84.7059 7.34532C85.752 6.87422 86.8855 6.62885 88.0326 6.62519C89.3325 6.60121 90.6201 6.88065 91.7932 7.44134C92.8829 7.98171 93.7876 8.83393 94.3922 9.88977C94.7622 9.33098 95.2122 8.82956 95.7277 8.4015C96.2268 7.98705 96.7763 7.63754 97.3631 7.36132C97.937 7.09075 98.541 6.88931 99.1624 6.76121C99.7731 6.63135 100.395 6.56432 101.02 6.56118C102.05 6.55215 103.077 6.70055 104.063 7.00126C105.006 7.27756 105.875 7.76259 106.606 8.42047C107.337 9.07836 107.911 9.89225 108.285 10.8019C108.737 11.9193 108.954 13.1176 108.925 14.3225V27.4049H101.562Z" fill="white"/>
<path d="M123.153 27.5049C120.978 27.5049 119.08 27.2436 117.46 26.7208C115.981 26.274 114.605 25.5391 113.411 24.5584C112.357 23.6721 111.53 22.5476 110.996 21.2778C110.452 19.9535 110.18 18.533 110.196 17.1011C110.18 15.6693 110.452 14.2488 110.996 12.9244C111.532 11.651 112.359 10.5212 113.411 9.62578C114.6 8.63763 115.977 7.90251 117.46 7.4654C119.079 6.95331 120.977 6.69727 123.153 6.69727C125.33 6.69727 127.228 6.95331 128.849 7.4654C130.331 7.90297 131.708 8.63805 132.896 9.62578C133.947 10.5212 134.775 11.651 135.311 12.9244C135.855 14.2488 136.127 15.6693 136.11 17.1011C136.127 18.533 135.855 19.9535 135.311 21.2778C134.777 22.5476 133.949 23.6721 132.896 24.5584C131.702 25.5387 130.327 26.2736 128.849 26.7208C127.234 27.2436 125.335 27.5049 123.153 27.5049ZM123.153 22.062C124.903 22.062 126.274 21.6672 127.264 20.8778C128.254 20.0883 128.751 18.8294 128.753 17.1011C128.753 15.3941 128.257 14.1406 127.264 13.3404C126.271 12.5403 124.901 12.1402 123.153 12.1402C121.405 12.1402 120.035 12.5403 119.043 13.3404C118.051 14.1406 117.555 15.3941 117.555 17.1011C117.555 18.8347 118.051 20.0936 119.043 20.8778C120.035 21.6619 121.405 22.0566 123.153 22.062Z" fill="white"/>
<path d="M137.398 27.4048V0H144.757V9.35365C145.637 8.41137 146.744 7.71146 147.972 7.32129C149.3 6.89594 150.688 6.68526 152.082 6.69718C153.599 6.67367 155.108 6.91743 156.541 7.41731C157.79 7.85081 158.928 8.55686 159.872 9.48437C160.816 10.4119 161.541 11.5377 161.997 12.7803C162.507 14.1627 162.758 15.6274 162.738 17.101C162.761 18.5832 162.478 20.0541 161.907 21.4218C161.387 22.6575 160.617 23.772 159.645 24.6951C158.674 25.6181 157.521 26.3296 156.261 26.7847C154.923 27.273 153.508 27.5169 152.084 27.5049C150.516 27.5194 148.958 27.2483 147.486 26.7047C146.111 26.1992 144.924 25.2822 144.087 24.0783L143.318 27.4048H137.398ZM150.163 12.1421C149.583 12.1464 149.005 12.2054 148.436 12.3182C147.838 12.4278 147.257 12.6161 146.708 12.8783C146.202 13.1138 145.746 13.4453 145.365 13.8544C145.009 14.2375 144.797 14.7325 144.765 15.2547V18.8033C144.75 19.3603 144.944 19.9029 145.309 20.3236C145.683 20.7457 146.141 21.0861 146.652 21.3238C147.206 21.5874 147.792 21.7758 148.396 21.8839C148.981 21.9973 149.575 22.0562 150.171 22.0599C151.771 22.0599 153.037 21.6332 153.97 20.7797C154.903 19.9262 155.369 18.6993 155.369 17.099C155.369 15.4987 154.903 14.2719 153.97 13.4184C153.037 12.5649 151.768 12.1388 150.163 12.1401V12.1421Z" fill="white"/>
<path d="M182.407 6.60107H190.004L175.609 34.0059H168.51L172.846 25.4304L161.457 6.60107H169.19L176.197 18.8032L182.407 6.60107Z" fill="white"/>
<path d="M46.6183 7.3613C48.6499 7.3613 50.2969 5.71342 50.2969 3.68065C50.2969 1.64788 48.6499 0 46.6183 0C44.5867 0 42.9397 1.64788 42.9397 3.68065C42.9397 5.71342 44.5867 7.3613 46.6183 7.3613Z" fill="#FF8F29"/>
<path d="M53.0019 6.59717L46.6143 20.7757L40.2287 6.59717H31.9279L42.6678 27.4028H46.5863H46.6443H50.5628L61.3007 6.59717H53.0019Z" fill="white"/>
</g>
<defs>
<clipPath id="clip0_317_700">
<rect width="190" height="34" fill="white"/>
</clipPath>
</defs>
</svg>
