<svg width="183" height="101" viewBox="0 0 183 101" fill="none" xmlns="http://www.w3.org/2000/svg">
<path d="M40.8362 90.3697V69.3339C40.8541 68.8364 40.7722 68.3403 40.5955 67.8751C40.4187 67.4099 40.1507 66.985 39.8073 66.6255C39.1213 65.9213 38.0582 65.5693 36.6178 65.5693C35.1073 65.5693 34.0018 65.9385 33.3015 66.677C32.9599 67.0283 32.691 67.4439 32.5102 67.8999C32.3295 68.3559 32.2404 68.8432 32.2482 69.3339V90.3832H20.4168V69.3339C20.4345 68.8366 20.3529 68.3408 20.1766 67.8757C20.0004 67.4105 19.7331 66.9855 19.3905 66.6255C18.7064 65.9123 17.6441 65.5557 16.2038 65.5557C14.7634 65.5557 13.6922 65.8906 12.99 66.5605C12.2843 67.2322 11.8981 68.1864 11.8315 69.4232V90.3697H0V58.0806H7.81562L9.30907 61.6882C10.4316 60.0998 11.9595 58.8434 13.7327 58.0509C15.4139 57.2915 17.2361 56.8965 19.0799 56.8917C21.1663 56.8536 23.2329 57.3034 25.1158 58.2052C26.8723 59.0745 28.3313 60.4481 29.3072 62.1513C29.899 61.2522 30.6176 60.444 31.4407 59.7517C32.2423 59.0857 33.1243 58.5234 34.0657 58.0779C34.9918 57.6359 35.9674 57.3067 36.9716 57.0975C37.9487 56.8929 38.9441 56.7885 39.9423 56.7861C41.5978 56.7786 43.245 57.0224 44.8277 57.5092C46.3228 57.9585 47.7049 58.7231 48.8814 59.7517C50.0763 60.8289 51.0173 62.1593 51.636 63.6463C52.3202 65.228 52.6623 67.1238 52.6623 69.3339V90.3832L40.8362 90.3697Z" fill="white"/>
<path d="M75.5501 90.5348C72.0536 90.5348 69.0028 90.1132 66.3976 89.27C63.7924 88.4268 61.6238 87.2658 59.8918 85.787C58.1953 84.3607 56.8638 82.548 56.0083 80.5003C54.2944 76.1781 54.2944 71.362 56.0083 67.0398C56.8687 64.988 58.1992 63.1685 59.8918 61.7287C61.622 60.2319 63.7906 59.0709 66.3976 58.2458C69.0046 57.4206 72.0554 57.0081 75.5501 57.0081C79.0465 57.0081 82.0982 57.4206 84.7052 58.2458C87.3122 59.0709 89.4808 60.2319 91.211 61.7287C92.9029 63.1692 94.2332 64.9885 95.0945 67.0398C96.8084 71.362 96.8084 76.1781 95.0945 80.5003C94.2381 82.5475 92.9067 84.36 91.211 85.787C89.479 87.2694 87.3104 88.4304 84.7052 89.27C82.1 90.1096 79.0483 90.5312 75.5501 90.5348ZM75.5501 81.7651C78.3623 81.7651 80.566 81.1332 82.1612 79.8693C83.7564 78.6054 84.553 76.5768 84.5512 73.7836C84.5512 71.0355 83.7546 69.016 82.1612 67.725C80.5678 66.434 78.3641 65.7885 75.5501 65.7885C72.7378 65.7885 70.535 66.434 68.9416 67.725C67.3482 69.016 66.5516 71.0355 66.5516 73.7836C66.5516 76.5714 67.3482 78.6 68.9416 79.8693C70.535 81.1386 72.7378 81.7706 75.5501 81.7651Z" fill="white"/>
<path d="M98.4379 90.3696V46.2234H110.267V61.29C111.68 59.7704 113.461 58.6418 115.436 58.0129C117.571 57.3286 119.802 56.9894 122.044 57.0081C124.485 56.97 126.914 57.3624 129.22 58.1672C131.23 58.8652 133.061 60.0023 134.58 61.4965C136.099 62.9906 137.268 64.8044 138.002 66.8069C138.818 69.0358 139.219 71.396 139.185 73.7701C139.218 76.1596 138.758 78.5302 137.835 80.7333C136.998 82.7245 135.76 84.5205 134.197 86.0079C132.635 87.4953 130.782 88.642 128.755 89.3756C126.606 90.1633 124.332 90.5568 122.044 90.5375C119.518 90.5635 117.008 90.1256 114.639 89.2456C112.432 88.4293 110.529 86.9524 109.186 85.0152L107.952 90.3696H98.4379ZM118.963 65.775C118.031 65.7795 117.102 65.8702 116.186 66.0458C115.226 66.2244 114.293 66.5276 113.41 66.9477C112.597 67.3299 111.864 67.864 111.25 68.5213C110.677 69.1352 110.332 69.9278 110.272 70.7665V76.492C110.251 77.3854 110.563 78.2545 111.147 78.9295C111.747 79.6155 112.483 80.1689 113.308 80.5545C114.197 80.9782 115.139 81.2815 116.108 81.4564C117.049 81.6344 118.005 81.7251 118.963 81.7272C121.535 81.7272 123.576 81.0393 125.085 79.6635C126.594 78.2876 127.348 76.3105 127.348 73.7322C127.348 71.1538 126.594 69.1767 125.085 67.8009C123.576 66.425 121.534 65.7497 118.957 65.775H118.963Z" fill="white"/>
<path d="M170.79 56.8457H183L159.858 100.992H148.453L155.424 87.1793L137.114 56.8457H149.536L160.803 76.5111L170.79 56.8457Z" fill="white"/>
<path d="M0.097168 44.1462V0H11.9259V44.1462H0.097168Z" fill="white"/>
<path d="M33.7822 10.6275C40.1935 10.6275 45.0798 12.0458 48.4412 14.8824C51.8026 17.7189 53.4797 21.8546 53.4725 27.2893V30.7966H25.8126C25.8004 31.5104 25.9893 32.2132 26.3576 32.8241C26.726 33.435 27.2588 33.9292 27.8948 34.2498C29.2469 35.0081 31.2094 35.3864 33.7822 35.3846C34.9285 35.3963 36.0736 35.3056 37.2039 35.1138C37.9956 34.9798 38.7771 34.7906 39.5426 34.5477C40.0279 34.4053 40.488 34.1878 40.9065 33.9031C41.1041 33.7787 41.2712 33.6111 41.3953 33.4129H53.224C52.367 36.7821 50.2416 39.4128 46.8478 41.3051C43.454 43.1973 39.0988 44.1443 33.7822 44.1461C30.9846 44.1852 28.196 43.8203 25.5021 43.0628C23.2386 42.4252 21.1262 41.3374 19.2906 39.8642C17.5797 38.4605 16.2302 36.665 15.3558 34.629C14.4556 32.549 14.0055 30.134 14.0055 27.3841C14.0055 24.6758 14.4556 22.268 15.3558 20.1609C16.2249 18.1202 17.5708 16.319 19.2798 14.9094C21.1161 13.4372 23.2283 12.3496 25.4913 11.7109C28.189 10.9538 30.9811 10.5889 33.7822 10.6275ZM33.7822 19.3972C30.9015 19.3972 28.8617 19.78 27.6626 20.5455C26.4635 21.3111 25.8468 22.2193 25.8126 23.2701V23.782H41.6518V23.2214C41.6518 22.2012 41.0433 21.3093 39.8262 20.5455C38.6091 19.7818 36.5944 19.399 33.7822 19.3972Z" fill="white"/>
<path d="M75.0396 11.8626C78.306 11.8626 80.954 9.20706 80.954 5.9313C80.954 2.65553 78.306 0 75.0396 0C71.7732 0 69.1252 2.65553 69.1252 5.9313C69.1252 9.20706 71.7732 11.8626 75.0396 11.8626Z" fill="#FF8F29"/>
<path d="M85.3021 10.6277L75.0343 33.4754L64.7665 10.6277H51.4254L68.6878 44.1544H74.9884H75.0802H81.3808L98.6432 10.6277H85.3021Z" fill="white"/>
</svg>
